<svg width="50" height="50" viewBox="0 0 50 50" fill="none" xmlns="http://www.w3.org/2000/svg">
<path d="M3.125 18.9583C3.125 13.4161 3.125 10.645 4.20358 8.52822C5.15233 6.6662 6.6662 5.15233 8.52822 4.20358C10.645 3.125 13.4161 3.125 18.9583 3.125H31.0417C36.5839 3.125 39.355 3.125 41.4717 4.20358C43.3338 5.15233 44.8477 6.6662 45.7964 8.52822C46.875 10.645 46.875 13.4161 46.875 18.9583V31.0417C46.875 36.5839 46.875 39.355 45.7964 41.4717C44.8477 43.3338 43.3338 44.8477 41.4717 45.7964C39.355 46.875 36.5839 46.875 31.0417 46.875H18.9583C13.4161 46.875 10.645 46.875 8.52822 45.7964C6.6662 44.8477 5.15233 43.3338 4.20358 41.4717C3.125 39.355 3.125 36.5839 3.125 31.0417V18.9583Z" fill="#330000"/>
<path d="M24.3259 30.6192H17.5464L16.167 35.0141C16.1287 35.1774 15.9784 35.293 15.8148 35.2849H12.381C12.1852 35.2849 12.1167 35.1746 12.1756 34.9538L18.0453 17.6153C18.1041 17.4347 18.1628 17.2291 18.2214 16.9983C18.2983 16.5966 18.3375 16.1885 18.3389 15.7792C18.322 15.6583 18.4283 15.5515 18.5442 15.5684H23.2108C23.3475 15.5684 23.4256 15.6186 23.4455 15.7189L30.1078 34.9839C30.1664 35.1847 30.1078 35.285 29.9317 35.2849H26.1162C25.9825 35.3002 25.8547 35.2085 25.8228 35.0742L24.3259 30.6192ZM18.603 26.8264H23.2402C22.4783 24.223 21.6184 21.6538 20.9216 19.0302C20.1697 21.6583 19.3494 24.2758 18.603 26.8264Z" fill="#FF9A00"/>
<path d="M34.0695 18.7591C33.7701 18.7714 33.4717 18.7188 33.1934 18.6047C32.9153 18.4906 32.6637 18.3175 32.4553 18.0969C32.2474 17.8666 32.0859 17.5966 31.9801 17.302C31.8743 17.0077 31.8264 16.6947 31.8389 16.3811C31.8282 16.0706 31.8815 15.7614 31.9953 15.4735C32.1092 15.1856 32.2809 14.9256 32.4993 14.7104C32.7156 14.4975 32.9709 14.3306 33.2506 14.2196C33.5301 14.1085 33.8284 14.0554 34.1281 14.0633C34.8326 14.0633 35.3853 14.279 35.7864 14.7104C35.9889 14.9347 36.1462 15.1976 36.2495 15.4843C36.3526 15.7709 36.3998 16.0758 36.3879 16.3811C36.4003 16.6958 36.3507 17.01 36.2423 17.3047C36.134 17.5994 35.9689 17.8688 35.757 18.0969C35.5356 18.3208 35.2712 18.4952 34.9809 18.6092C34.6904 18.7231 34.3801 18.7742 34.0695 18.7591ZM32.0443 34.9838V20.5953C32.0443 20.4147 32.1223 20.3244 32.2792 20.3244H35.8892C36.0454 20.3244 36.1237 20.4147 36.1239 20.5953V34.9838C36.1239 35.1847 36.0456 35.285 35.8892 35.2848H32.3085C32.1324 35.2848 32.0443 35.1845 32.0443 34.9838Z" fill="#FF9A00"/>
</svg>
