<svg width="58" height="58" viewBox="0 0 58 58" fill="none" xmlns="http://www.w3.org/2000/svg">
<path d="M28.9115 41.0681V17.4147M28.9115 17.4147L20.4639 25.8623M28.9115 17.4147L37.3592 25.8623" stroke="#F95D44" stroke-width="7" stroke-linecap="round" stroke-linejoin="round"/>
<path d="M4.98023 20.529C6.78993 12.8139 12.8139 6.78993 20.529 4.98021C26.1009 3.67326 31.8992 3.67326 37.4712 4.98021C45.1862 6.78993 51.2101 12.8139 53.0198 20.529C54.3267 26.1009 54.3267 31.8992 53.0198 37.4712C51.2101 45.1862 45.1862 51.2101 37.4712 53.0198C31.8992 54.3267 26.1009 54.3267 20.529 53.0198C12.8139 51.2101 6.78993 45.1862 4.98023 37.4712C3.67326 31.8992 3.67326 26.1009 4.98023 20.529Z" stroke="#F95D44" stroke-width="7"/>
<path d="M4.98023 20.6924C3.67326 26.237 3.67326 32.0071 4.98023 37.5518C6.78993 45.2292 12.8139 51.2237 20.529 53.0245C26.1009 54.3251 31.8992 54.3251 37.4712 53.0245C45.1862 51.2237 51.2101 45.2292 53.0198 37.5518C54.3267 32.0071 54.3267 26.237 53.0198 20.6924C51.2101 13.015 45.1862 7.02037 37.4712 5.21948" stroke="#0C657A" stroke-width="7" stroke-linecap="round"/>
</svg>
