<svg width="17" height="12" viewBox="0 0 17 12" fill="none" xmlns="http://www.w3.org/2000/svg">
<path d="M0.7197 5.33332C0.322224 5.33332 0 5.63181 0 5.99998C0 6.36816 0.322224 6.66665 0.7197 6.66665H9.596V11.3333C9.596 11.603 9.77132 11.846 10.0403 11.9492C10.3092 12.0524 10.6187 11.9954 10.8246 11.8048L16.5822 6.47145C16.7172 6.34638 16.793 6.17678 16.793 5.99998C16.793 5.82318 16.7172 5.65358 16.5822 5.52861L10.8246 0.195279C10.6187 0.00461328 10.3092 -0.0524177 10.0403 0.0507642C9.77132 0.153955 9.596 0.397048 9.596 0.666683V5.33332H0.7197Z" fill="#1C274C"/>
</svg>
