<svg width="48" height="32" viewBox="0 0 48 32" fill="none" xmlns="http://www.w3.org/2000/svg">
<path d="M5.69761 0C2.83942 0 0.515625 2.00089 0.515625 4.46191V26.7715C0.515625 29.2325 2.83942 31.2334 5.69761 31.2334H41.9715C44.8297 31.2334 47.1535 29.2325 47.1535 26.7715V4.46191C47.1535 2.00089 44.8297 0 41.9715 0H5.69761ZM12.1751 17.8476H17.3571C20.9359 17.8476 23.8346 20.3435 23.8346 23.425C23.8346 24.0385 23.2516 24.5405 22.5391 24.5405H6.99311C6.28059 24.5405 5.69761 24.0385 5.69761 23.425C5.69761 20.3435 8.59629 17.8476 12.1751 17.8476ZM9.5841 11.1548C9.5841 9.9714 10.1301 8.8365 11.1019 7.99973C12.0737 7.16296 13.3917 6.69287 14.7661 6.69287C16.1404 6.69287 17.4585 7.16296 18.4303 7.99973C19.4021 8.8365 19.9481 9.9714 19.9481 11.1548C19.9481 12.3381 19.4021 13.4731 18.4303 14.3098C17.4585 15.1466 16.1404 15.6167 14.7661 15.6167C13.3917 15.6167 12.0737 15.1466 11.1019 14.3098C10.1301 13.4731 9.5841 12.3381 9.5841 11.1548ZM30.312 8.92382H40.676C41.3885 8.92382 41.9715 9.42579 41.9715 10.0393C41.9715 10.6528 41.3885 11.1548 40.676 11.1548H30.312C29.5995 11.1548 29.0166 10.6528 29.0166 10.0393C29.0166 9.42579 29.5995 8.92382 30.312 8.92382ZM30.312 13.3857H40.676C41.3885 13.3857 41.9715 13.8877 41.9715 14.5012C41.9715 15.1147 41.3885 15.6167 40.676 15.6167H30.312C29.5995 15.6167 29.0166 15.1147 29.0166 14.5012C29.0166 13.8877 29.5995 13.3857 30.312 13.3857ZM30.312 17.8476H40.676C41.3885 17.8476 41.9715 18.3496 41.9715 18.9631C41.9715 19.5766 41.3885 20.0786 40.676 20.0786H30.312C29.5995 20.0786 29.0166 19.5766 29.0166 18.9631C29.0166 18.3496 29.5995 17.8476 30.312 17.8476Z" fill="#34465C"/>
</svg>
