<svg width="24" height="24" viewBox="0 0 24 24" fill="none" xmlns="http://www.w3.org/2000/svg">
<g clip-path="url(#clip0_2247_529)">
<path d="M12 2.25C14.5859 2.25 17.0658 3.27723 18.8943 5.10571C20.7228 6.93419 21.75 9.41414 21.75 12C21.75 14.5859 20.7228 17.0658 18.8943 18.8943C17.0658 20.7228 14.5859 21.75 12 21.75C9.41414 21.75 6.93419 20.7228 5.10571 18.8943C3.27723 17.0658 2.25 14.5859 2.25 12C2.25 9.41414 3.27723 6.93419 5.10571 5.10571C6.93419 3.27723 9.41414 2.25 12 2.25ZM12 24C15.1826 24 18.2348 22.7357 20.4853 20.4853C22.7357 18.2348 24 15.1826 24 12C24 8.8174 22.7357 5.76516 20.4853 3.51472C18.2348 1.26428 15.1826 0 12 0C8.8174 0 5.76516 1.26428 3.51472 3.51472C1.26428 5.76516 0 8.8174 0 12C0 15.1826 1.26428 18.2348 3.51472 20.4853C5.76516 22.7357 8.8174 24 12 24ZM9.34687 14.6531C7.88437 13.1906 7.88437 10.8141 9.34687 9.35156C10.8094 7.88906 13.1859 7.88906 14.6484 9.35156C15.0891 9.79219 15.8016 9.79219 16.2375 9.35156C16.6734 8.91094 16.6781 8.19844 16.2375 7.7625C13.8937 5.41875 10.0969 5.41875 7.75312 7.7625C5.40937 10.1063 5.40937 13.9031 7.75312 16.2469C10.0969 18.5906 13.8937 18.5906 16.2375 16.2469C16.6781 15.8063 16.6781 15.0938 16.2375 14.6578C15.7969 14.2219 15.0844 14.2172 14.6484 14.6578C13.1859 16.1203 10.8094 16.1203 9.34687 14.6578V14.6531Z" fill="#FBDFBA"/>
</g>
<defs>
<clipPath id="clip0_2247_529">
<rect width="24" height="24" fill="white"/>
</clipPath>
</defs>
</svg>
