<svg width="30" height="30" viewBox="0 0 30 30" fill="none" xmlns="http://www.w3.org/2000/svg">
<path fill-rule="evenodd" clip-rule="evenodd" d="M17.1973 2.14081C17.0386 1.61209 16.552 1.25 16 1.25C15.448 1.25 14.9614 1.61209 14.8027 2.14081L14.32 3.75H6C3.92894 3.75 2.25 5.42894 2.25 7.5V20C2.25 22.0711 3.92894 23.75 6 23.75H8.31996L7.30271 27.1409C7.10435 27.802 7.47957 28.4989 8.14081 28.6972C8.80205 28.8956 9.49891 28.5204 9.69729 27.8591L10.93 23.75H21.07L22.3027 27.8591C22.5011 28.5204 23.198 28.8956 23.8591 28.6972C24.5204 28.4989 24.8956 27.802 24.6973 27.1409L23.68 23.75H26C28.0711 23.75 29.75 22.0711 29.75 20V7.5C29.75 5.42894 28.0711 3.75 26 3.75H17.68L17.1973 2.14081ZM4.75 7.5C4.75 6.80964 5.30965 6.25 6 6.25H15.25H16.75H26C26.6904 6.25 27.25 6.80965 27.25 7.5V20C27.25 20.6904 26.6904 21.25 26 21.25H22H10H6C5.30965 21.25 4.75 20.6904 4.75 20V7.5ZM14.618 8.53647C12.9558 7.70535 11 8.91409 11 10.7725V16.7275C11 18.5859 12.9558 19.7946 14.618 18.9635L20.573 15.9861C22.4156 15.0647 22.4156 12.4352 20.573 11.5139L14.618 8.53647ZM13.5 10.7725L19.4549 13.75L13.5 16.7275V10.7725Z" fill="white"/>
</svg>
