<svg width="35" height="35" viewBox="0 0 35 35" fill="none" xmlns="http://www.w3.org/2000/svg">
<path fill-rule="evenodd" clip-rule="evenodd" d="M35 17.5C35 27.165 27.165 35 17.5 35C7.83502 35 0 27.165 0 17.5C0 7.83496 7.83502 0 17.5 0C27.165 0 35 7.83496 35 17.5ZM18 3C18.8284 3 19.5 3.67163 19.5 4.5V15.803L21.5596 13.5503C22.1186 12.939 23.0674 12.8965 23.6788 13.4556C24.2902 14.0144 24.3327 14.9631 23.7737 15.5747L19.107 20.6787C18.8229 20.9897 18.4211 21.1667 18 21.1667C17.5789 21.1667 17.1771 20.9897 16.8929 20.6787L12.2263 15.5747C11.6673 14.9631 11.7098 14.0144 12.3212 13.4556C12.9326 12.8965 13.8813 12.939 14.4404 13.5503L16.5 15.803V4.5C16.5 3.67163 17.1716 3 18 3ZM9 18.5C9 17.6716 8.32843 17 7.5 17C6.67157 17 6 17.6716 6 18.5V18.6018C5.99994 20.1648 5.99988 21.4868 6.14154 22.5403C6.29199 23.6597 6.62677 24.6978 7.46448 25.5354C8.30219 26.3733 9.34021 26.708 10.4597 26.8584C11.5114 27 12.8307 27 14.3903 27H14.3983H14.5H21.5C22.3284 27 23 26.3284 23 25.5C23 24.6716 22.3284 24 21.5 24H14.5C12.8077 24 11.6893 23.9968 10.8594 23.8853C10.0727 23.7795 9.77319 23.6016 9.58582 23.4143C9.39838 23.2268 9.22052 22.9272 9.11475 22.1406C9.00317 21.3105 9 20.1924 9 18.5ZM30 18.5C30 17.6716 29.3284 17 28.5 17C27.6716 17 27 17.6716 27 18.5C27 20.1924 26.9968 21.3105 26.8853 22.1406C26.7795 22.9272 26.6016 23.2268 26.4142 23.4143C26.2779 23.5505 26.0956 23.668 25.7579 23.7637C24.9609 23.9893 24.4977 24.8184 24.7234 25.6155C24.9492 26.4126 25.7783 26.8757 26.5754 26.6501C27.3096 26.4421 27.9723 26.0986 28.5355 25.5354C29.3732 24.6978 29.7079 23.6597 29.8585 22.5403C30.0001 21.4868 30.0001 20.1648 30 18.6016V18.5Z" fill="#34465C"/>
</svg>
