<svg width="50" height="50" viewBox="0 0 50 50" fill="none" xmlns="http://www.w3.org/2000/svg">
<path d="M43.0583 6.6333H6.9417C3.10811 6.6333 0 9.74141 0 13.575V36.425C0 40.2586 3.10811 43.3667 6.9417 43.3667H43.0583C46.8918 43.3667 50 40.2586 50 36.425V13.575C50 9.74141 46.8918 6.6333 43.0583 6.6333ZM17.399 31.418L7.67832 39.7109C6.99268 40.2961 5.96191 40.2147 5.37686 39.5284C4.7917 38.8428 4.87305 37.812 5.55947 37.227L15.2802 28.934C15.9657 28.3488 16.9964 28.4302 17.5815 29.1166C18.1667 29.8021 18.0854 30.8329 17.399 31.418ZM25 28.2652C23.6998 28.262 22.4395 27.83 21.4541 26.9778L21.4549 26.9786L21.4518 26.9763C21.4525 26.9771 21.4534 26.9771 21.4541 26.9778L6.53926 14.0326C5.85762 13.441 5.78506 12.4104 6.37578 11.7296C6.96729 11.0479 7.99805 10.9754 8.67871 11.5661L23.5978 24.5146C23.9166 24.7983 24.442 25.0032 25 25C25.5572 25.0017 26.0737 24.8023 26.4102 24.509L26.4174 24.5026L41.3212 11.5662C42.002 10.9755 43.0327 11.048 43.6242 11.7297C44.2148 12.4104 44.1424 13.4411 43.4607 14.0327L28.5418 26.9818C27.5597 27.8251 26.301 28.2636 25 28.2652ZM44.6238 39.5284C44.0387 40.2147 43.0079 40.2961 42.3225 39.7109L32.6018 31.418C31.9154 30.8328 31.8341 29.8021 32.4192 29.1166C33.0043 28.4302 34.0351 28.3489 34.7206 28.934L44.4413 37.227C45.1276 37.812 45.209 38.8428 44.6238 39.5284Z" fill="#34465C"/>
</svg>
