<svg width="50" height="50" viewBox="0 0 50 50" fill="none" xmlns="http://www.w3.org/2000/svg">
<path d="M44.9656 1.56876H5.02812C5.01562 1.56876 5.00156 1.56876 4.98594 1.56876C3.1125 1.56876 1.59219 3.07501 1.57031 4.94219V45.0547C1.59219 46.9234 3.1125 48.4313 4.98594 48.4313C5.00156 48.4313 5.01563 48.4313 5.03125 48.4313H44.9609C44.9734 48.4313 44.9891 48.4313 45.0047 48.4313C46.8797 48.4313 48.4031 46.9266 48.4328 45.0578V45.0547V4.94532C48.4031 3.07501 46.8797 1.56876 45.0031 1.56876C44.9875 1.56876 44.9734 1.56876 44.9578 1.56876H44.9656ZM15.4687 41.5031H8.50938V19.1422H15.4687V41.5031ZM11.9906 16.0828C9.76406 16.0828 7.96094 14.2781 7.96094 12.0531C7.96094 9.82813 9.76562 8.02344 11.9906 8.02344C14.2156 8.02344 16.0203 9.82657 16.0203 12.0516C16.0203 12.0531 16.0203 12.0547 16.0203 12.0578C16.0203 14.2813 14.2172 16.0844 11.9937 16.0844C11.9922 16.0844 11.9906 16.0844 11.9891 16.0844L11.9906 16.0828ZM41.4938 41.5031H34.5547V30.6297C34.5547 28.0359 34.5016 24.7 30.9391 24.7C27.3203 24.7 26.7688 27.5219 26.7688 30.4391V41.5047H19.8297V19.1438H26.4953V22.1922H26.5859C27.8797 20.0125 30.2203 18.575 32.8969 18.575C32.9922 18.575 33.0859 18.5766 33.1797 18.5797H33.1656C40.1969 18.5797 41.4969 23.2078 41.4969 29.2313V41.5047L41.4938 41.5031Z" fill="#357F76"/>
</svg>
