<svg width="50" height="50" viewBox="0 0 50 50" fill="none" xmlns="http://www.w3.org/2000/svg">
<path d="M47.875 11.1161L27.125 0.431067C26.4601 0.147178 25.7346 0 25 0C24.2654 0 23.5399 0.147178 22.875 0.431067L2.125 11.1161C1.48701 11.4509 0.9557 11.9309 0.583167 12.5088C0.210634 13.0867 0.00967504 13.7427 0 14.4125V35.5551C0.00967504 36.225 0.210634 36.881 0.583167 37.4589C0.9557 38.0368 1.48701 38.5167 2.125 38.8516L7.625 41.6933C9.06181 42.4654 10.7064 42.8589 12.375 42.83C16.25 42.83 18.5 40.6703 18.5 37.0328V16.2312C18.5 16.0805 18.4342 15.9359 18.3169 15.8293C18.1997 15.7227 18.0408 15.6629 17.875 15.6629H15.25C15.0842 15.6629 14.9253 15.7227 14.8081 15.8293C14.6908 15.9359 14.625 16.0805 14.625 16.2312V37.0328C14.625 38.7379 12.75 40.3293 9.75 38.9652L4 36.0098C3.92238 35.9569 3.85938 35.8882 3.81598 35.8093C3.77259 35.7304 3.75 35.6434 3.75 35.5551V14.4125C3.7586 14.2025 3.84694 14.0016 4 13.8441L24.625 3.27282H25.375L46 13.8441C46.1531 14.0016 46.2414 14.2025 46.25 14.4125V35.5551C46.25 35.6434 46.2274 35.7304 46.184 35.8093C46.1406 35.8882 46.0776 35.9569 46 36.0098L25.375 46.5811C25.261 46.641 25.1317 46.6725 25 46.6725C24.8683 46.6725 24.739 46.641 24.625 46.5811L19.375 43.8531C19.3062 43.7971 19.2172 43.7662 19.125 43.7662C19.0328 43.7662 18.9438 43.7971 18.875 43.8531L15.75 45.1034C15.375 45.2171 14.875 45.3308 15.875 45.8991L22.875 49.4229C23.5064 49.7994 24.245 50 25 50C25.755 50 26.4936 49.7994 27.125 49.4229L47.875 38.8516C48.513 38.5167 49.0443 38.0368 49.4168 37.4589C49.7894 36.881 49.9903 36.225 50 35.5551V14.4125C49.9903 13.7427 49.7894 13.0867 49.4168 12.5088C49.0443 11.9309 48.513 11.4509 47.875 11.1161Z" fill="black"/>
<path d="M31.375 35.454C25.875 35.454 24.75 34.204 24.25 31.579C24.25 31.4464 24.1973 31.3192 24.1036 31.2254C24.0098 31.1317 23.8826 31.079 23.75 31.079H21C20.8674 31.079 20.7402 31.1317 20.6464 31.2254C20.5527 31.3192 20.5 31.4464 20.5 31.579C20.5 34.954 22.375 39.079 31.375 39.079C37.875 39.079 41.625 36.579 41.625 32.204C41.625 27.829 38.625 26.579 32.25 25.829C25.875 25.079 25.25 24.579 25.25 23.079C25.25 21.579 25.75 20.329 30.5 20.329C35.25 20.329 36.375 21.204 37 23.954C37.0292 24.0973 37.1078 24.2258 37.222 24.3171C37.3362 24.4085 37.4788 24.4569 37.625 24.454H40.25L40.75 24.204C40.7952 24.1532 40.8296 24.0938 40.8511 24.0294C40.8726 23.9649 40.8807 23.8967 40.875 23.829C40.5 18.954 37.125 16.704 30.5 16.704C23.875 16.704 21.125 19.204 21.125 23.204C21.125 27.204 24.625 28.829 30.25 29.454C35.875 30.079 37.625 30.954 37.625 32.329C37.625 33.704 35.75 35.454 31.375 35.454Z" fill="black"/>
</svg>
