<svg width="50" height="50" viewBox="0 0 50 50" fill="none" xmlns="http://www.w3.org/2000/svg">
<path d="M11.8164 46.6797C13.5962 46.6797 15.0391 45.2368 15.0391 43.457C15.0391 41.6772 13.5962 40.2344 11.8164 40.2344C10.0366 40.2344 8.59375 41.6772 8.59375 43.457C8.59375 45.2368 10.0366 46.6797 11.8164 46.6797Z" fill="#58C4FF"/>
<path fill-rule="evenodd" clip-rule="evenodd" d="M23.3398 28.7089L14.6714 45.0195L8.98438 41.9942L17.6528 25.6836L23.3398 28.7089Z" fill="#58C4FF"/>
<path fill-rule="evenodd" clip-rule="evenodd" d="M26.3672 9.37296L17.6398 25.6836L11.9141 22.6583L20.6414 6.34766L26.3672 9.37296Z" fill="#58C4FF"/>
<path d="M23.4375 11.0352C25.2173 11.0352 26.6602 9.59232 26.6602 7.8125C26.6602 6.03268 25.2173 4.58984 23.4375 4.58984C21.6577 4.58984 20.2148 6.03268 20.2148 7.8125C20.2148 9.59232 21.6577 11.0352 23.4375 11.0352Z" fill="#58C4FF"/>
<path fill-rule="evenodd" clip-rule="evenodd" d="M38.8644 4.68585C40.3007 5.0437 41.3086 6.33285 41.3086 7.81203V43.457H34.8602V20.7343L29.0335 31.6849L23.3398 28.6597L35.2376 6.29946C35.9325 4.99342 37.4281 4.32801 38.8644 4.68585Z" fill="#58C4FF"/>
<path d="M38.0859 46.6797C39.8657 46.6797 41.3086 45.2368 41.3086 43.457C41.3086 41.6772 39.8657 40.2344 38.0859 40.2344C36.3062 40.2344 34.8633 41.6772 34.8633 43.457C34.8633 45.2368 36.3062 46.6797 38.0859 46.6797Z" fill="#58C4FF"/>
</svg>
