<svg width="50" height="50" viewBox="0 0 50 50" fill="none" xmlns="http://www.w3.org/2000/svg">
<g clip-path="url(#clip0_2106_963)">
<mask id="mask0_2106_963" style="mask-type:luminance" maskUnits="userSpaceOnUse" x="0" y="0" width="50" height="50">
<path d="M35.3179 49.5322C36.1023 49.8379 36.9969 49.8182 37.7887 49.4373L48.0428 44.5033C49.1202 43.9848 49.8054 42.8941 49.8054 41.6978V8.24161C49.8054 7.04526 49.1202 5.95478 48.0428 5.43629L37.7887 0.502055C36.7496 0.00206602 35.5335 0.124532 34.6216 0.787535C34.4912 0.882247 34.3671 0.987994 34.2508 1.10453L14.6204 19.0136L6.06988 12.523C5.27391 11.9188 4.16056 11.9683 3.4213 12.6408L0.678863 15.1355C-0.225395 15.958 -0.226432 17.3806 0.676624 18.2045L8.09195 24.9696L0.676624 31.7348C-0.226432 32.5587 -0.225395 33.9813 0.678863 34.8038L3.4213 37.2984C4.16056 37.971 5.27391 38.0204 6.06988 37.4163L14.6204 30.9256L34.2508 48.8348C34.5613 49.1455 34.9259 49.3795 35.3179 49.5322ZM37.3617 13.6632L22.4667 24.9696L37.3617 36.276V13.6632Z" fill="white"/>
</mask>
<g mask="url(#mask0_2106_963)">
<path d="M48.0732 5.44406L37.8111 0.503022C36.6234 -0.0689002 35.2037 0.17235 34.2715 1.10457L0.677035 31.7349C-0.22657 32.5588 -0.225532 33.9814 0.679276 34.8039L3.42338 37.2985C4.1631 37.971 5.27713 38.0205 6.07357 37.4164L46.529 6.72589C47.8862 5.69628 49.8357 6.66429 49.8357 8.36787V8.24873C49.8357 7.05291 49.1506 5.96281 48.0732 5.44406Z" fill="#0065A9"/>
</g>
<mask id="mask1_2106_963" style="mask-type:luminance" maskUnits="userSpaceOnUse" x="0" y="0" width="50" height="50">
<path d="M35.3179 49.5322C36.1023 49.8379 36.9969 49.8182 37.7887 49.4373L48.0428 44.5033C49.1202 43.9848 49.8054 42.8941 49.8054 41.6978V8.24161C49.8054 7.04526 49.1202 5.95478 48.0428 5.43629L37.7887 0.502055C36.7496 0.00206602 35.5335 0.124532 34.6216 0.787535C34.4912 0.882247 34.3671 0.987994 34.2508 1.10453L14.6204 19.0136L6.06988 12.523C5.27391 11.9188 4.16056 11.9683 3.4213 12.6408L0.678863 15.1355C-0.225395 15.958 -0.226432 17.3806 0.676624 18.2045L8.09195 24.9696L0.676624 31.7348C-0.226432 32.5587 -0.225395 33.9813 0.678863 34.8038L3.4213 37.2984C4.16056 37.971 5.27391 38.0204 6.06988 37.4163L14.6204 30.9256L34.2508 48.8348C34.5613 49.1455 34.9259 49.3795 35.3179 49.5322ZM37.3617 13.6632L22.4667 24.9696L37.3617 36.276V13.6632Z" fill="white"/>
</mask>
<g mask="url(#mask1_2106_963)">
<path d="M48.0732 44.4953L37.8111 49.4363C36.6234 50.0081 35.2037 49.7669 34.2715 48.8348L0.677035 18.2045C-0.22657 17.3806 -0.225532 15.958 0.679276 15.1354L3.42338 12.6408C4.1631 11.9683 5.27713 11.9188 6.07357 12.523L46.529 43.2134C47.8862 44.243 49.8357 43.275 49.8357 41.5714V41.6906C49.8357 42.8863 49.1506 43.9764 48.0732 44.4953Z" fill="#007ACC"/>
</g>
<mask id="mask2_2106_963" style="mask-type:luminance" maskUnits="userSpaceOnUse" x="0" y="0" width="50" height="50">
<path d="M35.3179 49.5322C36.1023 49.8379 36.9969 49.8182 37.7887 49.4373L48.0428 44.5033C49.1202 43.9848 49.8054 42.8941 49.8054 41.6978V8.24161C49.8054 7.04526 49.1202 5.95478 48.0428 5.43629L37.7887 0.502055C36.7496 0.00206602 35.5335 0.124532 34.6216 0.787535C34.4912 0.882247 34.3671 0.987994 34.2508 1.10453L14.6204 19.0136L6.06988 12.523C5.27391 11.9188 4.16056 11.9683 3.4213 12.6408L0.678863 15.1355C-0.225395 15.958 -0.226432 17.3806 0.676624 18.2045L8.09195 24.9696L0.676624 31.7348C-0.226432 32.5587 -0.225395 33.9813 0.678863 34.8038L3.4213 37.2984C4.16056 37.971 5.27391 38.0204 6.06988 37.4163L14.6204 30.9256L34.2508 48.8348C34.5613 49.1455 34.9259 49.3795 35.3179 49.5322ZM37.3617 13.6632L22.4667 24.9696L37.3617 36.276V13.6632Z" fill="white"/>
</mask>
<g mask="url(#mask2_2106_963)">
<path d="M37.779 49.4403C36.5908 50.0117 35.1712 49.7703 34.2389 48.838C35.3875 49.9867 37.3517 49.173 37.3517 47.5485V2.39708C37.3517 0.772562 35.3875 -0.041007 34.2389 1.10771C35.1712 0.175402 36.5908 -0.0661885 37.779 0.505229L48.0393 5.43947C49.1175 5.95796 49.8031 7.04844 49.8031 8.24479V41.701C49.8031 42.8974 49.1175 43.9878 48.0393 44.5063L37.779 49.4403Z" fill="#1F9CF0"/>
</g>
<mask id="mask3_2106_963" style="mask-type:luminance" maskUnits="userSpaceOnUse" x="0" y="0" width="50" height="50">
<path d="M35.3179 49.5322C36.1023 49.8379 36.9969 49.8182 37.7887 49.4373L48.0428 44.5033C49.1202 43.9848 49.8054 42.8941 49.8054 41.6978V8.24161C49.8054 7.04526 49.1202 5.95478 48.0428 5.43629L37.7887 0.502055C36.7496 0.00206602 35.5335 0.124532 34.6216 0.787535C34.4912 0.882247 34.3671 0.987994 34.2508 1.10453L14.6204 19.0136L6.06988 12.523C5.27391 11.9188 4.16056 11.9683 3.4213 12.6408L0.678863 15.1355C-0.225395 15.958 -0.226432 17.3806 0.676624 18.2045L8.09195 24.9696L0.676624 31.7348C-0.226432 32.5587 -0.225395 33.9813 0.678863 34.8038L3.4213 37.2984C4.16056 37.971 5.27391 38.0204 6.06988 37.4163L14.6204 30.9256L34.2508 48.8348C34.5613 49.1455 34.9259 49.3795 35.3179 49.5322ZM37.3617 13.6632L22.4667 24.9696L37.3617 36.276V13.6632Z" fill="white"/>
</mask>
<g mask="url(#mask3_2106_963)">
<path d="M35.3179 49.5323C36.1024 49.8377 36.9969 49.8183 37.7886 49.4373L48.0427 44.5031C49.1203 43.9846 49.8055 42.8941 49.8055 41.6978V8.2416C49.8055 7.04526 49.1203 5.95477 48.0429 5.43629L37.7886 0.502056C36.7497 0.00206581 35.5335 0.124532 34.6214 0.787534C34.4913 0.882247 34.3672 0.987994 34.2506 1.10453L14.6204 19.0136L6.06987 12.523C5.27392 11.9188 4.16055 11.9683 3.42129 12.6408L0.678863 15.1355C-0.225395 15.958 -0.226432 17.3806 0.676624 18.2045L8.09196 24.9696L0.676624 31.7348C-0.226432 32.5587 -0.225395 33.9813 0.678863 34.8039L3.42129 37.2984C4.16055 37.971 5.27392 38.0204 6.06987 37.4163L14.6204 30.9257L34.2506 48.8348C34.5611 49.1455 34.9259 49.3796 35.3179 49.5323ZM37.3617 13.6632L22.4668 24.9696L37.3617 36.2761V13.6632Z" fill="url(#paint0_linear_2106_963)" fill-opacity="0.25"/>
</g>
</g>
<defs>
<linearGradient id="paint0_linear_2106_963" x1="2490.28" y1="0.195293" x2="2490.28" y2="4955.06" gradientUnits="userSpaceOnUse">
<stop stop-color="white"/>
<stop offset="1" stop-color="white" stop-opacity="0"/>
</linearGradient>
<clipPath id="clip0_2106_963">
<rect width="50" height="50" fill="white"/>
</clipPath>
</defs>
</svg>
