<svg width="50" height="50" viewBox="0 0 50 50" fill="none" xmlns="http://www.w3.org/2000/svg">
<path d="M3.125 18.9583C3.125 13.4161 3.125 10.645 4.20358 8.52822C5.15233 6.6662 6.6662 5.15233 8.52822 4.20358C10.645 3.125 13.4161 3.125 18.9583 3.125H31.0417C36.5839 3.125 39.355 3.125 41.4717 4.20358C43.3338 5.15233 44.8477 6.6662 45.7964 8.52822C46.875 10.645 46.875 13.4161 46.875 18.9583V31.0417C46.875 36.5839 46.875 39.355 45.7964 41.4717C44.8477 43.3338 43.3338 44.8477 41.4717 45.7964C39.355 46.875 36.5839 46.875 31.0417 46.875H18.9583C13.4161 46.875 10.645 46.875 8.52822 45.7964C6.6662 44.8477 5.15233 43.3338 4.20358 41.4717C3.125 39.355 3.125 36.5839 3.125 31.0417V18.9583Z" fill="#470137"/>
<path d="M26.0102 15.9903L20.5513 25.2315L26.3916 35.0445C26.513 35.267 26.3916 35.3162 26.2156 35.3162H22.0481C21.7545 35.3162 21.5491 35.3056 21.4317 35.1048C21.04 34.3221 20.6488 33.5445 20.2577 32.7718C19.8661 31.9995 19.4503 31.2118 19.0105 30.4089C18.5702 29.6065 18.1348 28.7939 17.7044 27.9707C17.3128 28.7735 16.8773 29.5762 16.457 30.3789C16.0361 31.1817 15.6203 31.9793 15.2097 32.7718C14.7988 33.5648 14.3782 34.3525 13.9477 35.1348C13.8693 35.3154 13.7322 35.334 13.5368 35.334H9.51603C9.35805 35.334 9.33899 35.2153 9.428 35.0746L15.0923 25.5325L9.57469 15.9601C9.47447 15.8235 9.56072 15.6781 9.72147 15.6892H13.8596C14.0388 15.6792 14.1972 15.7467 14.2999 15.9C14.6521 16.7028 15.0434 17.5056 15.4738 18.3081C15.9039 19.1109 16.3394 19.9037 16.7798 20.686C17.2202 21.4687 17.6555 22.2614 18.0272 23.0642C18.4183 22.2415 18.8145 21.4389 19.2158 20.656C19.6167 19.8734 20.0275 19.0857 20.4484 18.2931C20.8691 17.5006 21.275 16.7129 21.6664 15.9301C21.7184 15.7584 21.8428 15.6714 22.0186 15.6892H25.8633C26.0102 15.6892 26.0708 15.8896 26.0102 15.9903Z" fill="#FF61F6"/>
<path d="M34.433 35.707C31.8447 35.7475 29.1336 34.6817 27.7708 32.3206C27.1055 31.187 26.7728 29.7673 26.773 28.0612C26.7619 26.6797 27.1061 25.3195 27.7708 24.118C29.4859 21.052 32.9412 19.9033 36.2233 20.2048V14.2748C36.2233 14.1346 36.282 14.0641 36.3994 14.0641H40.0973C40.1984 14.0493 40.2878 14.141 40.2734 14.2447V32.0347C40.2734 32.7686 40.3462 33.5 40.3909 34.232C40.3981 34.357 40.3258 34.4808 40.2147 34.5331C38.3877 35.3147 36.4106 35.698 34.433 35.707ZM36.2233 31.9744V23.7567C33.5427 23.012 30.9402 25.0537 30.9405 27.8806C30.8769 30.8033 33.3962 32.8225 36.2233 31.9744Z" fill="#FF61F6"/>
</svg>
