<svg width="50" height="50" viewBox="0 0 50 50" fill="none" xmlns="http://www.w3.org/2000/svg">
<path d="M46.875 3.125H3.125V46.875H46.875V3.125Z" fill="#FFCA28"/>
<path d="M29.6875 39.5123L32.9086 37.3808C33.1611 38.1739 34.7597 40.0575 36.7789 40.0575C38.7981 40.0575 39.7356 38.9547 39.7356 38.2234C39.7356 36.2309 37.6737 35.5284 36.6834 35.1911C36.5219 35.1361 36.3891 35.0908 36.2981 35.0512C36.2514 35.0309 36.1809 35.0039 36.0905 34.9694C34.9891 34.5486 30.9255 32.9961 30.9255 28.4958C30.9255 23.5391 35.7091 22.9691 36.7909 22.9691C37.4986 22.9691 40.9014 23.0558 42.5961 26.2405L39.4711 28.4216C38.7861 27.0336 37.6478 26.5751 36.9472 26.5751C35.2164 26.5751 34.8558 27.8439 34.8558 28.4216C34.8558 30.0422 36.7362 30.7686 38.3239 31.3819C38.7394 31.5423 39.1347 31.695 39.4711 31.8541C41.2019 32.6719 43.75 34.0103 43.75 38.2234C43.75 40.3337 41.98 43.7503 37.5241 43.7503C31.5384 43.7503 29.9519 40.1567 29.6875 39.5123Z" fill="#3E3E3E"/>
<path d="M14.0625 39.9355L17.4198 37.8051C17.6828 38.5978 18.7052 40.0594 20.1883 40.0594C21.6716 40.0594 22.4308 38.5359 22.4308 37.8051V23.4378H26.5597V37.8051C26.6266 39.7869 25.5275 43.7503 20.6769 43.7503C16.2172 43.7503 14.3632 41.0998 14.0625 39.9355Z" fill="#3E3E3E"/>
</svg>
