<svg width="122" height="50" viewBox="0 0 122 50" fill="none" xmlns="http://www.w3.org/2000/svg">
<path fill-rule="evenodd" clip-rule="evenodd" d="M15.4559 37.618L14.7169 37.3969C14.7169 37.3969 14.8071 34.0977 13.4554 33.8609C12.5542 32.9453 13.5995 -4.97232 16.8437 33.7346C16.8437 33.7346 15.7264 34.224 15.528 35.0606C15.3117 35.8815 15.4559 37.618 15.4559 37.618Z" fill="white"/>
<path fill-rule="evenodd" clip-rule="evenodd" d="M15.4559 37.618L14.7169 37.3969C14.7169 37.3969 14.8071 34.0977 13.4554 33.8609C12.5542 32.9453 13.5995 -4.97232 16.8437 33.7346C16.8437 33.7346 15.7264 34.224 15.528 35.0606C15.3117 35.8815 15.4559 37.618 15.4559 37.618Z" fill="#A6A385"/>
<path fill-rule="evenodd" clip-rule="evenodd" d="M15.8525 34.4293C15.8525 34.4293 22.323 30.7038 20.809 22.9529C19.3491 17.3174 15.9065 15.4705 15.528 14.7601C15.1135 14.2549 14.7169 13.371 14.7169 13.371L14.9874 29.0462C14.9874 29.062 14.4286 33.8452 15.8525 34.4293Z" fill="white"/>
<path fill-rule="evenodd" clip-rule="evenodd" d="M15.8525 34.4293C15.8525 34.4293 22.323 30.7038 20.809 22.9529C19.3491 17.3174 15.9065 15.4705 15.528 14.7601C15.1135 14.2549 14.7169 13.371 14.7169 13.371L14.9874 29.0462C14.9874 29.062 14.4286 33.8452 15.8525 34.4293Z" fill="#499D4A"/>
<path fill-rule="evenodd" clip-rule="evenodd" d="M14.3385 34.6344C14.3385 34.6344 8.26452 31.0036 8.62506 24.6105C8.96738 18.2171 13.2571 15.0758 14.0861 14.5075C14.6269 14.0024 14.645 13.8129 14.681 13.3077C15.0595 14.0182 14.9875 23.9317 15.0414 25.0998C15.2036 29.5987 14.7531 33.7821 14.3385 34.6344Z" fill="white"/>
<path fill-rule="evenodd" clip-rule="evenodd" d="M14.3385 34.6344C14.3385 34.6344 8.26452 31.0036 8.62506 24.6105C8.96738 18.2171 13.2571 15.0758 14.0861 14.5075C14.6269 14.0024 14.645 13.8129 14.681 13.3077C15.0595 14.0182 14.9875 23.9317 15.0414 25.0998C15.2036 29.5987 14.7531 33.7821 14.3385 34.6344Z" fill="#58AA50"/>
<path fill-rule="evenodd" clip-rule="evenodd" d="M61.0254 26.3232C60.5748 26.2758 60.2503 26.2127 59.8537 26.0548C59.7997 26.0232 59.7095 25.8655 59.7095 25.8023C59.6734 25.2497 59.6734 23.6711 59.6734 22.6135C59.6734 21.761 59.5114 21.0191 59.0967 20.4982C58.61 19.8983 57.9071 19.551 57.006 19.551C56.2129 19.551 55.1495 20.0247 54.2663 20.6877C54.2483 20.7033 54.1041 20.814 54.1222 20.6403C54.1222 20.4666 54.1582 20.1194 54.1763 19.8826C54.1943 19.6615 54.0501 19.551 54.0501 19.551C53.4733 19.8036 51.8512 20.1352 51.2564 20.1824C50.8238 20.2614 50.7157 20.6245 51.1663 20.7508H51.1844C51.6709 20.877 51.9953 21.0191 52.2476 21.1612C52.4279 21.2875 52.4098 21.4612 52.4098 21.6033C52.4279 22.7872 52.4279 24.6025 52.3739 25.5971C52.3559 25.9917 52.2297 26.1337 51.9053 26.1969L51.9412 26.1811C51.6889 26.2285 51.4906 26.2758 51.1842 26.3074C51.0761 26.402 51.0761 26.9073 51.1842 27.0178C51.3825 27.0178 52.4279 26.9704 53.2931 26.9704C54.4827 26.9704 55.0955 27.0178 55.4019 27.0178C55.5281 26.8915 55.5641 26.4178 55.492 26.3074C55.1495 26.2916 54.8972 26.2601 54.663 26.1969C54.3385 26.1337 54.2483 25.9917 54.2302 25.6602C54.1943 24.8235 54.1943 23.0556 54.1943 21.8558C54.1943 21.5242 54.3024 21.3664 54.4105 21.2717C54.825 20.9561 55.492 20.735 56.0867 20.735C56.6635 20.735 57.0421 20.8928 57.3304 21.0981C57.7269 21.3822 57.853 21.7926 57.9071 22.0926C57.9972 22.7714 57.9613 24.1132 57.9613 25.2813C57.9613 25.9127 57.9071 26.0706 57.6368 26.1495C57.5107 26.1969 57.1862 26.2601 56.8077 26.2916C56.6815 26.402 56.7176 26.8915 56.8077 27.002C57.3304 27.002 57.9432 26.9546 58.8444 26.9546C59.9618 26.9546 60.6829 27.002 60.9712 27.002C61.0613 26.9073 61.0975 26.4495 61.0254 26.3232ZM66.0179 20.293C65.0626 20.293 64.4679 20.9403 64.4679 21.9505C64.4679 22.9765 64.9905 24.1605 66.4685 24.1605C66.7208 24.1605 67.1894 24.0658 67.4056 23.8448C67.7481 23.5607 67.9825 22.9923 67.9825 22.3925C67.9825 21.0823 67.2434 20.293 66.0179 20.293ZM65.8916 27.2703C65.5313 27.2703 65.2788 27.365 65.1168 27.444C64.3596 27.8701 64.0173 28.2806 64.0173 28.7701C64.0173 29.2278 64.2154 29.5908 64.6481 29.9066C65.1707 30.3012 65.8916 30.4907 66.8109 30.4907C68.6493 30.4907 69.4604 29.6224 69.4604 28.7701C69.4604 28.1701 69.1179 27.7755 68.4151 27.5545C67.9103 27.365 66.9911 27.2703 65.8916 27.2703ZM66.0179 31.3747C64.9184 31.3747 64.1254 31.1694 63.4405 30.7117C62.7736 30.2696 62.4852 29.6066 62.4852 29.1489C62.4852 29.0226 62.5213 28.6752 62.8458 28.3596C63.0439 28.1701 63.4765 27.8071 64.5039 27.1915C64.5399 27.1757 64.5579 27.1599 64.5579 27.1283C64.5579 27.0967 64.5218 27.0651 64.4859 27.0494C63.6387 26.7652 63.3864 26.3074 63.3142 26.0548V26.0232C63.2964 25.9285 63.2603 25.8339 63.4225 25.739C63.5486 25.6602 63.7289 25.5655 63.927 25.455C64.2335 25.2971 64.5579 25.1234 64.7562 24.9814C64.7923 24.9498 64.7923 24.9183 64.7923 24.8867C64.7923 24.8551 64.7562 24.8235 64.7201 24.8078C63.4586 24.4446 62.8277 23.6237 62.8277 22.3925C62.8277 21.5875 63.2422 20.8612 63.9812 20.4035C64.4859 20.0561 65.7475 19.63 66.5766 19.63H66.6308C67.4778 19.6457 67.9464 19.8036 68.6132 20.0089C68.9738 20.1194 69.3163 20.1666 69.7849 20.1666C70.4878 20.1666 70.7942 19.9773 71.0464 19.7563C71.0645 19.7878 71.1006 19.8668 71.1186 20.0719C71.1367 20.2772 71.0645 20.5771 70.8842 20.7982C70.74 20.9717 70.4157 21.0981 70.0913 21.0981H70.0011C69.6766 21.0665 69.5324 21.0349 69.5324 21.0349L69.4604 21.0665C69.4424 21.0981 69.4604 21.1296 69.4785 21.177L69.4965 21.2086C69.5324 21.3507 69.6046 21.7768 69.6046 21.8874C69.6046 23.1818 69.0098 23.75 68.379 24.1763C67.7662 24.5709 67.0633 24.8235 66.2702 24.8867C66.2522 24.8867 66.1802 24.8867 66.0179 24.9025C65.9277 24.9025 65.8016 24.9183 65.7835 24.9183H65.7655C65.6213 24.9498 65.2609 25.1076 65.2609 25.376C65.2609 25.6128 65.4232 25.8969 66.198 25.9443C66.3603 25.9601 66.5225 25.9601 66.7028 25.9759C67.7301 26.039 69.0098 26.118 69.6046 26.2916C70.4336 26.5599 70.9564 27.2071 70.9564 27.9808C70.9564 29.1489 70.0011 30.2381 68.4151 30.9168C67.64 31.2168 66.865 31.3747 66.0179 31.3747ZM76.2915 20.3719C75.9129 20.3719 75.5704 20.4508 75.3181 20.6087C74.6152 20.9875 74.2547 21.7453 74.2547 22.8503C74.2547 24.9183 75.4442 26.3706 77.1385 26.3706C77.6432 26.3706 78.0397 26.2443 78.3822 25.9917C78.9048 25.6128 79.1753 24.8551 79.1753 23.7974C79.1753 21.7453 78.0036 20.3719 76.2915 20.3719ZM76.6159 27.1283C73.5518 27.1283 72.4523 25.155 72.4523 23.3081C72.4523 22.0137 73.0471 21.0191 74.2367 20.3087C75.0839 19.851 76.0932 19.5984 76.9943 19.5984C79.3373 19.5984 80.9776 21.0665 80.9776 23.1818C80.9776 24.6183 80.3287 25.7548 79.0851 26.4495C78.4903 26.7967 77.4631 27.1283 76.6159 27.1283ZM44.4975 20.3719C44.119 20.3719 43.7766 20.4508 43.5242 20.6087C42.8213 20.9875 42.4608 21.7453 42.4608 22.8503C42.4608 24.9183 43.6503 26.3706 45.3446 26.3706C45.8493 26.3706 46.2458 26.2443 46.5883 25.9917C47.1109 25.6128 47.3813 24.8551 47.3813 23.7974C47.3813 21.7453 46.2277 20.3719 44.4975 20.3719ZM44.822 27.1283C41.7579 27.1283 40.6584 25.155 40.6584 23.3081C40.6584 22.0137 41.2532 21.0191 42.4427 20.3087C43.2899 19.851 44.2992 19.5984 45.2004 19.5984C47.5436 19.5984 49.1837 21.0665 49.1837 23.1818C49.1837 24.6183 48.5348 25.7548 47.2911 26.4495C46.7144 26.7967 45.6871 27.1283 44.822 27.1283ZM24.2208 26.9704C24.1847 26.9231 24.1486 26.781 24.1667 26.6073C24.1667 26.4811 24.2028 26.402 24.2208 26.3706C24.5992 26.3232 24.7975 26.2758 25.0137 26.2285C25.3743 26.1495 25.5184 25.9759 25.5365 25.5813C25.5906 24.6341 25.5906 22.8345 25.5726 21.5875V21.5558C25.5726 21.4138 25.5726 21.2401 25.3743 21.1138C25.0859 20.9561 24.7434 20.814 24.2928 20.7033C24.1306 20.6561 24.0225 20.5771 24.0405 20.4824C24.0405 20.3877 24.1486 20.2772 24.383 20.2456C24.9778 20.1982 26.5277 19.8668 27.1405 19.63C27.1766 19.6615 27.2308 19.7563 27.2308 19.8826L27.2127 20.0561C27.1947 20.2298 27.1766 20.4351 27.1766 20.6403C27.1766 20.7033 27.2488 20.7508 27.3208 20.7508C27.3569 20.7508 27.393 20.735 27.4291 20.7192C28.5825 19.9299 29.6279 19.6457 30.1685 19.6457C31.0518 19.6457 31.7367 20.0089 32.2594 20.7666C32.2953 20.814 32.3314 20.8296 32.3856 20.8296C32.4216 20.8296 32.4756 20.814 32.4937 20.7824C33.5571 20.0719 34.6205 19.6457 35.3233 19.6457C36.9996 19.6457 37.991 20.735 37.991 22.5819C37.991 23.1028 37.991 23.7816 37.9729 24.3974C37.9729 24.9498 37.9549 25.455 37.9549 25.8181C37.9549 25.8969 38.081 26.1495 38.2793 26.1969C38.5316 26.3074 38.8741 26.3548 39.3247 26.4178H39.3427C39.3788 26.5283 39.3066 26.9388 39.2346 27.0178C39.1264 27.0178 38.9641 27.0178 38.784 27.002C38.4415 26.9862 37.9549 26.9704 37.4142 26.9704C36.2967 26.9704 35.72 26.9862 35.1611 27.0178C35.1252 26.8915 35.1071 26.5127 35.1611 26.4178C35.4856 26.3706 35.6478 26.3232 35.8461 26.2758C36.2066 26.1811 36.2967 26.039 36.3147 25.6286C36.3147 25.3287 36.3867 22.7714 36.2786 22.1556C36.1706 21.5242 35.6297 20.7824 34.4402 20.7824C33.9896 20.7824 33.2867 20.9403 32.6018 21.398C32.5658 21.4296 32.5297 21.5084 32.5297 21.5558V21.5717C32.6018 21.9031 32.6018 22.2821 32.6018 22.8661V23.8921C32.6018 24.6025 32.5837 25.2655 32.6018 25.7706C32.6018 26.118 32.8362 26.1969 33.0345 26.2601C33.1426 26.2758 33.2146 26.2916 33.3048 26.3074C33.467 26.339 33.6292 26.3706 33.8815 26.4178C33.9176 26.4811 33.9176 26.6862 33.8635 26.8599C33.8454 26.9546 33.8093 27.002 33.7915 27.0178C33.1786 27.002 32.5478 26.9862 31.6286 26.9862C31.3582 26.9862 30.8896 27.002 30.493 27.002C30.1685 27.002 29.8621 27.0178 29.682 27.0178C29.664 26.9862 29.6279 26.8757 29.6279 26.702C29.6279 26.5599 29.664 26.4495 29.7001 26.4178C29.7901 26.402 29.8621 26.3864 29.9523 26.3864C30.1685 26.3548 30.3488 26.3232 30.5291 26.2916C30.8355 26.2127 30.9436 26.0706 30.9616 25.7234C31.0157 24.9341 31.0697 22.6767 30.9436 22.1084C30.7274 21.1928 30.1326 20.735 29.1773 20.735C28.6186 20.735 27.9156 20.9717 27.3389 21.3507C27.2488 21.4138 27.1766 21.5717 27.1766 21.7137V22.6451C27.1766 23.7816 27.1766 25.2025 27.1947 25.8181C27.2127 26.0074 27.2847 26.2285 27.6994 26.3074C27.7894 26.3232 27.9336 26.3548 28.1139 26.3706L28.4383 26.4178C28.4744 26.5127 28.4564 26.8915 28.3842 27.0178C28.2039 27.0178 27.9878 27.002 27.7353 27.002C27.3569 26.9862 26.8702 26.9704 26.3296 26.9704C25.6987 26.9704 25.2481 26.9862 24.8876 27.002C24.6353 26.9704 24.437 26.9704 24.2208 26.9704Z" fill="#442D22"/>
<path fill-rule="evenodd" clip-rule="evenodd" d="M102.498 20.7823C102.408 20.7981 102.318 20.9718 102.318 21.0665C102.3 21.6979 102.282 23.3713 102.282 24.5078C102.282 24.5394 102.336 24.6025 102.39 24.6025C102.661 24.6183 103.309 24.6341 103.868 24.6341C104.643 24.6341 105.094 24.5394 105.346 24.4448C105.995 24.1606 106.301 23.5448 106.301 22.866C106.301 21.3349 105.076 20.7507 103.255 20.7507C103.129 20.7351 102.769 20.7351 102.498 20.7823ZM107.149 27.8387C107.149 26.2759 105.833 25.4076 103.454 25.4076C103.346 25.4076 102.589 25.3918 102.408 25.4234C102.354 25.4392 102.282 25.4708 102.282 25.5182C102.282 26.6389 102.264 28.4228 102.318 29.1173C102.354 29.4172 102.607 29.8435 102.913 29.9698C103.237 30.1277 103.976 30.1591 104.481 30.1591C105.905 30.1591 107.149 29.4646 107.149 27.8387ZM98.8216 19.9142C99.0017 19.9142 99.5425 19.9614 100.93 19.9614C102.246 19.9614 103.291 19.93 104.571 19.93C106.139 19.93 108.302 20.4193 108.302 22.4714C108.302 23.4818 107.491 24.2869 106.428 24.6815C106.374 24.6973 106.374 24.7288 106.428 24.7446C107.942 25.0762 109.275 25.897 109.275 27.444C109.275 28.9595 108.194 29.9224 106.626 30.5223C105.671 30.8853 104.481 31.0116 103.273 31.0116C102.354 31.0116 99.885 30.9169 98.5152 30.9485C98.371 30.9011 98.6413 30.3328 98.7675 30.2381C99.0919 30.2223 99.3442 30.2065 99.6867 30.1118C100.173 30.0014 100.227 29.8751 100.3 29.2279C100.336 28.6754 100.336 26.7178 100.336 25.3287C100.336 23.4186 100.354 22.1242 100.336 21.4928C100.318 21.0034 100.119 20.8456 99.7228 20.7507C99.4164 20.7035 98.9117 20.6403 98.4972 20.593C98.4069 20.514 98.7133 19.9773 98.8216 19.9142ZM88.4218 29.733C88.8545 30.0328 89.7015 30.1591 90.4585 30.1591C91.4319 30.1591 92.4051 30.0014 93.3423 29.2593C94.2977 28.5017 94.9644 27.3335 94.9644 25.4708C94.9644 23.6869 94.1894 22.2346 92.6034 21.3823C91.7022 20.8928 90.5486 20.6877 89.2149 20.6877C88.8184 20.6877 88.4398 20.7035 88.2056 20.7981C88.1515 20.8298 88.0253 20.9718 88.0253 21.0507C87.9892 21.3665 87.9892 23.7974 87.9892 25.2182C87.9892 26.6863 87.9892 28.7384 88.0253 28.9752C88.0253 29.2121 88.1515 29.5751 88.4218 29.733ZM84.3304 19.9142C84.6729 19.9142 85.9886 19.9614 86.6194 19.9614C87.755 19.9614 88.566 19.9142 90.7108 19.9142C92.5132 19.9142 94.0272 20.3404 95.1086 21.1454C96.4243 22.14 97.1093 23.5134 97.1093 25.1866C97.1093 27.5703 95.8656 28.9437 94.6219 29.733C93.3784 30.5381 91.7562 31.0116 89.4493 31.0116C88.2236 31.0116 86.1149 30.98 84.3665 30.9642H84.3484C84.2584 30.8223 84.4926 30.2697 84.6368 30.2539C85.1054 30.2065 85.2316 30.1907 85.466 30.1118C85.8444 29.9856 85.9166 29.8119 85.9707 29.2279C86.0246 28.1386 86.0066 26.8284 86.0066 25.3445C86.0066 24.2869 86.0246 22.2188 85.9886 21.5558C85.9346 21.0034 85.6643 20.8614 85.1235 20.7665C84.8531 20.7193 84.4926 20.6561 83.988 20.6088C83.9159 20.4982 84.2403 20.0089 84.3304 19.9142Z" fill="#8E714E"/>
</svg>
