<svg width="50" height="50" viewBox="0 0 50 50" fill="none" xmlns="http://www.w3.org/2000/svg">
<path fill-rule="evenodd" clip-rule="evenodd" d="M25 3.125C29.3265 3.125 33.5558 4.40795 37.1531 6.8116C40.7504 9.21526 43.5542 12.6317 45.2099 16.6288C46.8655 20.6259 47.2987 25.0243 46.4547 29.2676C45.6106 33.5109 43.5272 37.4087 40.468 40.468C37.4087 43.5272 33.5109 45.6106 29.2676 46.4547C25.0243 47.2987 20.6259 46.8655 16.6288 45.2099C12.6317 43.5542 9.21526 40.7504 6.8116 37.1531C4.40795 33.5558 3.125 29.3265 3.125 25C3.125 19.1984 5.42968 13.6344 9.53204 9.53204C13.6344 5.42968 19.1984 3.125 25 3.125Z" fill="#CC6699"/>
<path d="M38.7222 12.4875C37.7316 8.60311 31.2894 7.33124 25.1925 9.49061C21.3743 10.7737 17.8466 12.7972 14.8113 15.4453C11.4535 18.5859 10.9175 21.3203 11.1379 22.4625C11.9191 26.4937 17.4394 29.1281 19.7097 31.0828V31.0937C19.041 31.4234 14.141 33.9062 12.991 36.4375C11.7816 39.1125 13.1832 41.0312 14.1129 41.2891C15.5087 41.6251 16.9747 41.5157 18.3052 40.9763C19.6357 40.4369 20.7639 39.4944 21.5316 38.2812C22.1661 37.2983 22.563 36.1812 22.691 35.0183C22.819 33.8554 22.6746 32.6786 22.2691 31.5812C23.3627 31.3034 24.4994 31.2381 25.6175 31.3891C29.455 31.8375 30.2082 34.2328 30.0644 35.2359C29.9968 35.593 29.8531 35.9313 29.6431 36.2279C29.433 36.5245 29.1616 36.7724 28.8472 36.9547C28.5785 37.1219 28.4957 37.1781 28.5191 37.3031C28.5519 37.4828 28.6754 37.4766 28.905 37.4375C29.4817 37.2559 29.9899 36.9038 30.3625 36.4277C30.7351 35.9516 30.9548 35.3737 30.9925 34.7703C31.0847 32.4266 28.8332 29.7922 24.8457 29.8594C23.6875 29.8263 22.5319 29.9847 21.4254 30.3281C21.3707 30.2656 21.3144 30.2031 21.2566 30.1406C18.791 27.5109 14.2347 25.65 14.4269 22.1141C14.4972 20.8281 14.9441 17.4437 23.1769 13.3375C29.9269 9.97343 35.33 10.9 36.2644 12.9515C37.5988 15.8828 33.3769 21.3281 26.3675 22.1141C25.5928 22.2713 24.7926 22.2521 24.0263 22.0579C23.26 21.8637 22.5473 21.4995 21.941 20.9922C21.5722 20.5859 21.5175 20.5687 21.38 20.6437C21.1566 20.7672 21.2988 21.1266 21.38 21.3391C21.6484 21.8228 22.0107 22.248 22.4457 22.5898C22.8806 22.9317 23.3794 23.1832 23.9129 23.3297C26.6688 23.9285 29.5433 23.6442 32.1285 22.5172C36.38 20.8781 39.6957 16.3078 38.7222 12.4875ZM20.6535 32.2859C20.9638 33.3558 20.948 34.4939 20.6082 35.5547C20.5717 35.6651 20.5316 35.7745 20.4879 35.8828C20.4441 35.9911 20.3967 36.0953 20.3457 36.1953C20.0827 36.7333 19.7421 37.2298 19.3347 37.6687C18.0644 39.0547 16.2879 39.5797 15.5269 39.1375C14.705 38.6609 15.116 36.7062 16.5894 35.1484C17.7216 34.0289 19.0269 33.0992 20.455 32.3953L20.6535 32.2859Z" fill="white"/>
</svg>
