<svg width="187" height="307" viewBox="0 0 187 307" fill="none" xmlns="http://www.w3.org/2000/svg">
<path d="M47.8483 12.0503L50.7301 14.5779C60.7945 38.6758 67.8727 63.9531 71.9514 90.408C85.4339 137.845 97.8132 185.097 109.097 232.158C117.26 254.66 124.2 276.823 129.911 298.642C129.655 299.452 128.99 300.087 127.916 300.548C126.824 300.941 125.196 301.217 123.993 301.43L121.046 302.336C118.865 302.526 115.475 302.38 113.251 302.155L110.351 301.114C109.736 301.001 108.97 301.208 108.404 301.067L106.481 300.05C106.182 299.949 105.789 300.133 105.504 300.027C100.414 297.481 95.266 294.868 91.0916 290.916C90.8649 290.763 90.3343 291.05 90.1149 290.892C84.9962 286.589 80.3105 281.874 75.8132 276.91C75.658 276.713 75.9922 276.131 75.837 275.934C70.553 270.076 65.8225 263.794 61.6462 257.081C61.5095 256.84 61.8059 256.353 61.67 256.105L59.7636 254.111C59.4272 253.435 59.3378 252.187 58.8577 251.163L56.0215 247.199C53.5956 241.569 51.1459 236.029 48.6078 230.452L45.8185 224.54C45.4955 223.641 45.222 222.55 44.9125 221.593C44.429 220.265 44.3888 219.214 45.9294 219.669C46.5381 219.782 47.2755 219.592 47.8761 219.716L51.753 220.781C52.3682 220.894 53.0918 220.709 53.6997 220.828L56.6 221.868C57.4992 222.042 58.6314 221.76 59.5233 221.939L62.4235 222.98C63.0242 223.104 63.7696 222.902 64.3702 223.026L68.2471 224.091C68.8477 224.215 69.594 224.007 70.1938 224.138L73.0941 225.178C73.6874 225.309 74.4402 225.101 75.0408 225.225C77.5982 224.59 78.2065 224.206 75.6981 222.266L42.5612 196.191C42.3549 196.034 41.7974 196.325 41.5846 196.167L38.7319 193.173C38.5264 193.01 37.947 193.318 37.7553 193.15L33.9491 189.162C33.8197 188.915 34.0926 188.458 33.9729 188.185L33.0431 186.215C32.8773 185.718 33.2453 184.796 33.0899 184.268L32.1839 181.321C32.1007 181.02 32.2837 180.651 32.2077 180.344L31.278 178.374C31.1387 177.821 31.456 176.992 31.3248 176.427L30.395 174.457C30.2646 173.885 30.5649 173.087 30.4418 172.51L29.5359 169.563C29.4738 169.251 29.6152 168.897 29.5597 168.586L28.6537 165.639C28.546 165.044 28.8017 164.287 28.7005 163.692L27.7945 160.745C27.6941 160.144 27.9345 159.405 27.8414 158.799L26.9354 155.851C26.799 154.942 27.1286 153.843 27.006 152.928L26.1001 149.981C25.9864 149.048 26.2706 147.996 26.1707 147.058L25.2877 143.141C25.2033 142.184 25.429 141.179 25.3584 140.217L24.4992 135.324C24.4396 133.715 24.59 132.065 24.6102 130.453L23.7913 123.611C23.8855 122.822 23.7267 121.989 23.855 121.19C24.0453 120.538 24.4902 120.803 24.8328 120.705C25.6236 120.733 26.3441 121.017 26.7565 121.722C27.0692 121.818 27.4611 121.64 27.7331 121.745L29.6568 122.762C30.6174 123.142 31.6151 123.433 32.557 123.803L34.4807 124.82C34.7731 124.921 35.1657 124.736 35.4573 124.844C37.625 125.923 38.3268 124.478 36.4742 122.92C36.3279 122.704 36.6412 122.186 36.498 121.943L34.5916 119.949C34.455 119.708 34.7521 119.214 34.6154 118.973C29.6751 113.063 26.2448 106.81 24.3253 100.208C24.4461 96.6423 24.4575 93.0501 24.5775 89.4908L25.7127 82.6906C25.7542 81.3984 25.6938 80.0743 25.8006 78.7899L26.8881 73.9429C27.014 72.9984 26.8141 71.9554 26.9588 71.0196L27.9995 68.1194C28.1556 67.1983 27.9017 66.1091 28.0701 65.1961L29.1108 62.2958C29.2354 61.6952 29.0273 60.9424 29.1577 60.3491L30.1984 57.4488C30.3344 56.8628 30.1034 56.0808 30.2452 55.5021L31.2621 53.5785C31.4104 53.0006 31.1549 52.2024 31.3089 51.6318L32.3497 48.7315C32.4319 48.4303 32.2839 48.0619 32.3735 47.7549L33.3904 45.8312C33.4791 45.5308 33.3189 45.1543 33.4142 44.8546L34.4549 41.9544C34.5494 41.6612 34.3769 41.2767 34.4787 40.9778L35.4956 39.0541C35.5966 38.7617 35.4184 38.3699 35.5194 38.0775L36.5363 36.1538C36.6431 35.8687 36.4526 35.4688 36.5601 35.1772L37.577 33.2535C37.6904 32.9692 37.4875 32.5612 37.6008 32.2769L38.6178 30.3533C39.027 29.3631 39.2924 28.3028 39.6585 27.453L40.6754 25.5293C41.1253 24.5307 41.3424 23.4316 41.7161 22.6291L43.7572 18.776C44.9299 16.4341 45.8405 14.4581 46.8391 12.0226L47.8157 12.0464L47.8483 12.0503Z" fill="#FBDFBA"/>
<path d="M54.8946 2.46736L58.7476 4.50848C59.6838 4.87159 60.896 5.19483 61.6479 5.5492C65.0456 7.63529 68.2459 9.98904 71.2374 12.5958C71.4575 12.7478 71.9947 12.4611 72.214 12.6196C77.9982 17.558 83.3121 22.9433 88.4222 28.5955C88.5773 28.7927 88.244 29.3684 88.3984 29.5721L96.9406 39.5182C97.0869 39.7342 96.7713 40.2723 96.9168 40.4948L99.7695 43.4888C99.9135 43.7243 99.609 44.2241 99.7457 44.4654C102.693 46.9412 103.935 49.5709 103.464 52.3539C103.426 52.6736 103.498 53.0131 103.44 53.3305L102.4 56.2308C102.33 56.5401 102.452 56.8988 102.376 57.2074L101.335 60.1076C101.258 60.4162 101.388 60.7757 101.311 61.0843L100.27 63.9845C100.187 64.2923 100.33 64.6534 100.247 64.9611L99.2059 67.8614C99.1172 68.1619 99.2709 68.5376 99.1821 68.838L98.1414 71.7383C98.0527 72.0387 98.2129 72.4152 98.1176 72.7149L97.0769 75.6152C96.9824 75.9083 97.1541 76.2994 97.0531 76.5918C97.3818 78.4972 97.0223 79.7912 95.9886 80.4687C95.4691 81.2736 95.7927 81.2791 96.9652 80.4925C98.951 76.6593 101.916 72.4399 105.035 68.9801C105.188 68.7534 104.906 68.2301 105.059 68.0034L107.053 66.0971C107.206 65.8704 106.919 65.3398 107.077 65.1205L109.071 63.2141C109.238 63.0354 108.937 62.4568 109.095 62.2375C109.978 61.2177 111.224 62.4781 111.996 63.2782C112.131 63.526 111.843 64.0012 111.972 64.2548L114.808 68.2196C115.15 69.0148 115.256 70.126 115.714 71.1667L121.332 81.0487C122.255 83.0249 123.155 85.7398 124.098 87.9368L127.816 95.8253C127.894 96.1126 127.739 96.4713 127.792 96.8019C128.474 98.0745 128.332 99.434 127.704 100.703C127.641 101.013 127.757 101.371 127.68 101.679L126.664 103.603C126.575 103.903 126.735 104.28 126.64 104.579L125.623 106.503C125.528 106.803 125.694 107.18 125.599 107.48L124.582 109.403C124.481 109.696 124.659 110.088 124.558 110.38L123.541 112.304C123.44 112.596 123.619 112.988 123.518 113.28L122.501 115.204C122.4 115.496 122.578 115.888 122.477 116.181L121.46 118.104C121.365 118.397 121.525 118.78 121.436 119.081C120.296 123.644 122.591 122.719 128.324 116.315C128.487 116.116 128.185 115.544 128.348 115.339C129.971 113.99 131.326 112.398 132.36 110.556C133.498 110.559 133.741 111.846 134.266 112.55L136.126 116.491C136.246 116.757 135.989 117.19 136.102 117.468L137.032 119.438C137.137 119.716 136.903 120.131 137.008 120.415L138.867 124.356C138.965 124.645 138.746 125.043 138.844 125.332L139.773 127.303C139.871 127.593 139.652 127.99 139.75 128.28L140.679 130.25C140.777 130.54 140.558 130.93 140.655 131.227L141.585 133.197C141.677 133.486 141.471 133.878 141.561 134.174L142.491 136.144C142.582 136.44 142.377 136.825 142.467 137.121L143.397 139.091C143.488 139.387 143.29 139.767 143.373 140.068L144.303 142.038C144.386 142.34 144.196 142.714 144.279 143.015L145.209 144.986C145.292 145.287 145.102 145.661 145.185 145.962L146.115 147.933C146.198 148.234 146.015 148.609 146.091 148.909L146.997 151.856C147.073 152.163 146.898 152.526 146.973 152.833L147.903 154.803C147.973 155.11 147.811 155.467 147.879 155.78L148.809 157.751C148.865 158.062 148.737 158.41 148.785 158.727C149.483 160.035 149.362 161.331 148.698 162.628C148.622 163.261 148.751 163.951 148.651 164.575L147.61 167.475C147.503 168.091 147.676 168.806 147.563 169.421L146.522 172.322C146.348 173.228 146.633 174.34 146.452 175.245L145.411 178.145C145.292 178.753 145.49 179.485 145.364 180.092L144.324 182.992C144.198 183.599 144.401 184.338 144.277 184.939L143.236 187.839C143.051 188.724 143.357 189.879 143.165 190.763L142.125 193.663C142 194.263 142.209 195.01 142.078 195.61L141.037 198.51C140.906 199.11 141.121 199.857 140.99 200.457L139.95 203.357C139.819 203.95 140.033 204.71 139.903 205.303L138.838 209.18C138.708 209.774 138.927 210.541 138.791 211.127C138.166 214.983 140.49 213.09 145.75 205.438C145.904 205.205 145.62 204.695 145.774 204.462L150.786 198.726C150.939 198.499 150.651 197.969 150.81 197.749L153.804 194.897C153.971 194.712 153.661 194.099 153.827 193.92C155.43 191.914 156.401 192.261 156.728 194.961C156.846 195.524 156.589 196.294 156.681 196.907L157.564 200.825C157.649 201.444 157.439 202.153 157.517 202.771L158.376 207.665C158.453 208.627 158.249 209.622 158.306 210.588L159.165 215.482C159.211 217.427 159.011 219.382 159.03 221.33C159.716 229.73 159.773 238.406 158.438 246.665C158.356 247.959 158.451 249.274 158.35 250.566L157.285 254.443C157.16 255.381 157.371 256.445 157.215 257.366L156.174 260.266C156.044 260.859 156.275 261.641 156.127 262.213L155.11 264.137C155.028 264.438 155.175 264.813 155.086 265.113L154.046 268.013C153.945 268.306 154.129 268.698 154.022 268.99L153.005 270.914C152.618 271.887 152.329 272.977 151.964 273.814L149.923 277.667C149.449 278.643 149.246 279.903 148.882 280.567L145.871 284.397C145.735 284.652 145.989 285.133 145.847 285.374C142.192 290.941 137.881 294.741 132.906 296.775C129.439 293.887 126.369 285.831 125.036 281.086C102.686 201.733 81.6382 119.841 61.8145 40.6703C57.9341 30.3668 54.154 20.0554 50.4732 9.74262L50.8829 7.25021C49.7874 6.22616 51.7521 3.56843 52.9479 2.42053C53.16 2.30684 54.3767 2.42546 54.8946 2.46736Z" fill="#FBDFBA"/>
<path d="M132.887 296.767C132.684 298.026 131.126 298.886 129.916 298.649C127.327 299.161 128.097 297.261 127.516 295.749C122.67 283.16 120.891 273.16 117.164 260.796C113.327 248.076 107.597 235.527 104.124 222.744C101.679 213.73 100.906 204.339 98.6786 195.543C89.4018 158.846 77.6987 122.628 68.8332 85.8669C65.2723 71.108 63.515 55.8758 59.1727 41.7318C56.0751 31.6342 50.94 22.1407 47.849 12.0438C47.2677 11.8686 47.335 11.5259 47.8728 11.0672C47.9133 10.7279 48.6703 8.81955 48.9135 8.16692C49.5849 6.97635 50.2442 6.66451 50.884 7.23714C55.0855 17.9561 60.0301 28.4924 63.5093 39.4959C64.3352 42.1158 64.3461 44.9099 65.0718 47.5377C86.0762 123.633 103.484 201.417 125.817 277.307C127.762 283.919 131.35 290.012 132.888 296.76L132.887 296.767Z" fill="#34465C"/>
</svg>
