<svg width="294" height="434" viewBox="0 0 294 434" fill="none" xmlns="http://www.w3.org/2000/svg">
<path d="M208.688 3.67682C208.342 3.70664 207.97 3.57484 207.627 3.62262C205.457 4.44498 203.62 5.88548 202.11 7.62237C201.602 8.45423 201.201 10.6434 200.843 11.8195L199.575 16.0166C199.296 18.0008 199.344 20.3367 199.271 22.3973L199.981 29.8827C199.887 32.5928 199.955 35.7742 199.577 38.3839L198.31 42.581C198.228 42.9177 198.349 43.3128 198.256 43.6419L197.097 45.7171C196.983 46.0314 197.167 46.4714 197.043 46.7781C194.864 51.4867 191.593 55.565 187.86 59.1388C175.278 68.6507 163.441 79.0907 152.359 90.4661C152.199 90.7235 152.471 91.2503 152.305 91.5271L148.864 96.6947C148.454 97.5565 148.056 98.8224 147.651 99.8309L146.492 101.906C146.39 102.237 146.54 102.636 146.438 102.967L145.225 106.103C145.075 107.143 145.184 108.242 145.073 109.294C143.926 112.326 143.77 115.72 144.624 118.854C144.625 119.915 144.444 120.988 144.472 122.045L145.379 125.28C145.439 125.971 145.222 126.718 145.281 127.409L146.189 130.645C146.256 131.326 146.022 132.085 146.091 132.774L147.052 134.949C147.128 135.629 146.886 136.389 146.954 137.079L147.818 141.383C147.914 144.126 147.762 148.257 147.369 150.943L146.156 154.079C146.066 154.426 146.206 154.828 146.102 155.14C142.891 160.971 138.454 165.972 133.657 170.526C133.435 170.692 132.828 170.313 132.596 170.472L124.85 176.494C124.588 176.639 124.051 176.295 123.789 176.44L107.292 187.378C107.049 187.529 106.473 187.173 106.231 187.324C99.5717 192.279 93.2281 197.579 87.3528 203.475C87.1761 203.689 87.4827 204.311 87.2986 204.536L80.5156 212.742C79.0798 215.204 77.1167 219.379 75.8079 222.106L74.649 224.182C74.5142 224.481 74.7296 224.943 74.5948 225.243L73.4359 227.318C73.3206 227.623 73.4941 228.055 73.3817 228.379L72.2228 230.454C72.061 231.09 72.2538 231.916 72.1249 232.583L70.9118 235.719C70.7813 236.765 70.8707 237.858 70.7597 238.91C69.4787 243.746 69.2571 248.849 70.0607 253.79C70.0708 254.85 69.8804 255.924 69.9085 256.981L70.8159 260.216C70.8547 260.56 70.7229 260.933 70.7617 261.277L71.669 264.513C71.7257 264.854 71.558 265.232 71.6148 265.574L72.5763 267.748C72.6331 268.089 72.4654 268.468 72.5221 268.809L73.4294 272.045C73.4862 272.386 73.3185 272.765 73.3752 273.106L74.3368 275.28C74.4443 275.927 74.1537 276.732 74.2388 277.41L75.2004 279.584C75.2629 280.626 75.0201 281.718 75.0482 282.775C75.9315 286.254 75.7538 290.012 74.5466 293.405C74.4506 294.104 74.5641 294.842 74.4486 295.535L73.2898 297.61C73.2073 297.947 73.3374 298.34 73.2356 298.671L72.0767 300.746C71.9539 301.062 72.1557 301.499 72.0225 301.807L62.7681 317.345C61.9985 318.82 61.1883 320.883 60.3872 322.558L58.0604 326.709C57.9271 327.018 58.1395 327.462 58.0062 327.77L56.8473 329.846C56.6451 330.405 56.9306 331.345 56.7494 331.975L55.5905 334.05C55.4511 334.71 55.611 335.505 55.4925 336.18L54.2252 340.377C53.637 345.439 53.3341 352.272 53.4178 357.379L54.2814 361.683C54.3321 362.376 54.0924 363.154 54.1835 363.812L55.0908 367.048C55.1566 367.388 54.9634 367.78 55.0366 368.109L55.9439 371.344C56.2579 372.4 56.5209 373.592 56.8513 374.58L57.8128 376.755C58.6217 378.899 59.7997 382.597 60.6537 384.347C66.5688 394.944 75.2424 403.54 86.1228 408.983C86.4146 409.129 86.883 408.894 87.1838 409.038L91.3357 411.364C91.8878 411.577 92.8785 411.265 93.4651 411.462L95.5403 412.621C95.871 412.723 96.2706 412.574 96.6012 412.675L99.7374 413.888C100.39 414.038 101.19 413.859 101.867 413.986L105.003 415.2C105.702 415.295 106.429 415.23 107.132 415.297C107.798 415.916 108.497 416.012 109.262 415.395L111.502 414.718L124.155 321.039C129.88 289.165 130.031 290.737 124.338 321.249L120.751 352.997C118.891 359.286 116.879 370.104 127.124 363.629C119.543 368.756 116.578 376.225 116.571 385.39L114.982 412.506C113.68 413.166 112.488 414.157 111.39 415.484C110.445 415.743 110.439 416.095 111.335 416.545C112.747 416.652 114.177 416.654 115.585 416.743L124.041 418.206C129.34 418.496 134.681 418.761 139.983 418.959L147.477 418.248C148.887 418.29 150.332 418.492 151.727 418.445L156.031 417.581C156.724 417.531 157.481 417.755 158.16 417.679L161.396 416.772C162.032 416.657 162.91 417 163.525 416.87L165.7 415.908C166.028 415.826 166.433 416.045 166.761 415.963L168.935 415.001C170.014 414.665 171.257 414.421 172.171 414.094C174.889 413.069 177.441 411.768 179.809 410.193C180.1 410.062 180.596 410.376 180.869 410.248C187.569 406.199 193.743 401.268 198.634 395.112C198.796 394.864 198.52 394.319 198.688 394.051C200.489 391.841 202.025 389.427 203.289 386.817C203.425 386.527 203.211 386.074 203.343 385.756L204.502 383.681C204.595 383.352 204.474 382.957 204.556 382.62L205.824 378.423C206.239 374.931 206.449 370.254 206.379 366.732L205.516 362.428C205.474 361.733 205.666 361 205.614 360.298L204.706 357.063C204.618 356.035 204.93 354.912 204.859 353.872L203.951 350.637C203.892 349.945 204.101 349.209 204.049 348.507L203.142 345.272C203.087 344.22 203.313 343.139 203.294 342.081C202.412 338.611 202.578 334.837 203.796 331.451C203.893 330.761 203.765 329.989 203.894 329.321L205.052 327.246C205.729 325.214 206.279 323.859 207.433 322.033C218.452 311.443 229.599 300.961 240.877 290.596C241.049 290.355 240.759 289.776 240.931 289.535L243.16 287.513C243.805 286.455 244.844 283.772 245.541 282.3L246.7 280.225C246.824 279.918 246.631 279.479 246.754 279.164L247.913 277.088C248.08 276.488 247.874 275.637 248.011 274.959L249.278 270.762C249.72 266.933 249.95 261.875 249.879 258.011L249.015 253.707C248.965 253.014 249.189 252.257 249.113 251.578L248.206 248.342C248.149 248.001 248.317 247.622 248.26 247.281L247.353 244.045C247.278 243.707 247.489 243.312 247.407 242.984L246.445 240.81C246.354 240.484 246.598 240.065 246.5 239.749L245.538 237.574C245.431 237.26 245.699 236.819 245.592 236.513L243.669 232.164C242.394 228.934 241.166 225.604 239.867 222.397L236.883 217.994C236.744 217.712 237.066 217.207 236.937 216.933L234.915 214.704C234.77 214.442 235.112 213.896 234.969 213.643L223.978 198.216C223.833 197.954 224.17 197.427 224.032 197.155L222.01 194.926C221.099 192.946 220.734 191.53 220.13 189.508L218.251 184.09C218.23 183.743 218.308 183.38 218.305 183.029C217.434 179.899 217.568 176.49 218.754 173.469C218.851 172.779 218.735 172.023 218.852 171.34L220.011 169.264C220.104 168.935 219.953 168.527 220.065 168.203L221.224 166.128C221.336 165.805 221.154 165.374 221.278 165.067L223.605 160.915C224.422 159.174 225.096 157.456 225.986 155.702L230.541 149.528C230.69 149.254 230.44 148.751 230.596 148.467L233.983 144.369C234.13 144.087 233.882 143.593 234.038 143.308C237.042 139.016 239.737 134.526 242.133 129.846C242.268 129.547 242.054 129.093 242.187 128.785L243.346 126.71C243.458 126.387 243.297 125.971 243.4 125.649L244.559 123.574C244.711 122.93 244.528 122.112 244.657 121.444L245.87 118.308C246.181 115.848 246.387 112.261 246.274 109.807L245.367 106.571C245.308 106.221 245.493 105.831 245.421 105.51L242.482 100.048C242.341 99.7572 242.68 99.2396 242.536 98.9866C238.529 94.1444 234.122 89.6731 229.316 85.5819C229.093 85.4067 228.48 85.7118 228.255 85.5277L223.196 79.9653C222.999 79.7767 222.315 80.1027 222.135 79.9111C221.28 77.765 219.718 76.0316 218.135 74.394C217.99 74.1321 218.32 73.6159 218.19 73.333L216.212 70.0447C215.631 68.2683 215.654 67.351 215.349 65.7407L214.441 62.5051C214.291 59.8265 214.545 55.641 214.89 52.9445L216.158 48.7474C216.285 48.071 216.116 47.2779 216.256 46.618L217.415 44.5428C217.564 43.8904 217.352 43.0583 217.512 42.4134L218.671 40.3382C218.833 39.7023 218.609 38.8537 218.769 38.2088L219.928 36.1336C220.09 35.4977 219.866 34.6491 220.026 34.0042L221.185 31.929C221.347 31.2931 221.124 30.4535 221.283 29.7996L222.496 26.6634C222.568 26.3193 222.478 25.9466 222.55 25.6025L223.861 20.3369C223.969 18.9902 224.138 17.3935 224.059 16.0871L223.151 12.8515C223.033 12.5297 223.333 12.0555 223.206 11.7906C221.475 8.37814 218.72 5.29312 215.054 3.94667C214.75 3.84033 214.34 3.98237 213.993 3.89247C212.449 2.82054 210.327 2.7675 208.682 3.64091L208.688 3.67682Z" fill="#FC8B2B"/>
<path d="M112.605 415.799C114.372 415.773 116.163 416.056 117.926 416.058C119.643 404.247 118.925 389.833 120.764 378.371C121.911 371.177 127.474 366.948 133.276 363.057C145.677 354.729 162.355 349.703 173.477 342.4C178.385 339.175 179.06 334.966 172.005 337.431C166.44 339.372 153.105 346.407 147.371 349.492C139.343 353.817 131.774 359.238 124.106 364.177C121.93 364.299 122.693 364.006 122.552 362.488C122.252 359.189 123.86 356.208 124.133 353.025C125.694 334.338 128.012 315.544 132.366 297.232C143.218 251.577 182.595 221.7 186.881 173.797C187.318 168.88 185.99 156.625 186.988 153.802C187.796 151.508 200.143 143.632 202.861 141.057C205.15 138.895 216.975 125.828 214.831 123.481C209.03 122.222 206.853 129.717 203.188 133.593C201.956 134.896 187.929 147.869 187.12 146.665C186.466 117.772 198.92 91.5701 211.163 66.2617L207.569 63.4637C197.013 85.262 186.038 107.545 183.493 132.071C181.036 155.742 184.824 175.966 176.394 199.173C168.405 221.154 154.253 239.924 141.78 259.521C141.291 260.295 138.431 269.177 136.685 266.782C134.325 250.98 133.827 232.903 128.361 217.904C126.812 213.641 125.947 208.885 120.219 209.561C119.305 213.219 122.051 215.42 123.189 218.543C126.553 227.783 134.47 268.941 133.86 277.864C133.57 282 128.183 295.27 126.851 301.241C122.64 320.082 121.175 339.012 118.519 358.047L110.48 415.728C111.186 415.758 111.901 415.842 112.609 415.826L112.605 415.799Z" fill="#081645"/>
</svg>
