<svg width="216" height="246" viewBox="0 0 216 246" fill="none" xmlns="http://www.w3.org/2000/svg">
<path d="M207.274 77.5146C207.196 77.5855 207.125 77.6563 207.062 77.7271C207.062 77.7035 207.046 77.6799 207.038 77.6563C207.117 77.6091 207.196 77.5619 207.274 77.5146Z" fill="#F95D44"/>
<path d="M0.525976 115.785C0.447472 116.625 0.0392519 117.504 0 118.329L0.321866 121.045C0.321866 121.328 0.141307 121.61 0.149157 121.893L0.643731 123.761C0.675133 124.279 0.251212 124.962 0.290464 125.457L0.785038 127.325C0.81644 127.6 0.573078 127.906 0.61233 128.173L1.60933 131.918C1.65643 132.185 1.38167 132.507 1.43662 132.766C2.21381 136.33 3.26576 139.792 4.59247 143.152C4.66313 143.395 4.34126 143.764 4.41976 144L5.76218 146.048C5.84853 146.284 5.49527 146.669 5.58947 146.896C9.05934 153.396 12.9767 159.637 17.6948 165.321C17.8753 165.486 18.3463 165.329 18.5426 165.494L21.408 168.744C21.9418 169.176 22.9938 169.537 23.7788 170.118L26.8169 172.52C27.0446 172.661 27.4292 172.559 27.6647 172.693L29.1877 173.894C29.4311 174.027 29.7922 173.941 30.0356 174.066L32.4064 175.44C32.8695 175.668 33.6232 175.574 34.1021 175.794L36.4729 177.167C36.9753 177.372 37.6583 177.317 38.1686 177.521L39.6915 178.722C40.4766 179.004 41.4343 178.981 42.2351 179.248L46.3015 180.975C47.4006 181.273 48.5703 181.462 49.6929 181.681L54.9605 181.885C55.8084 182.042 56.6562 182.231 57.504 182.411C58.9956 182.05 60.55 182.309 61.7432 183.291C61.8139 183.526 61.5156 183.872 61.5705 184.139L62.0651 186.007C62.1044 186.282 61.8453 186.588 61.8924 186.855C62.6696 190.411 63.7215 193.873 65.0483 197.241C65.1111 197.492 64.8049 197.837 64.8755 198.089L67.3877 203.034C67.474 203.262 67.1286 203.655 67.215 203.882L69.2325 206.952C69.3346 207.156 68.9577 207.595 69.0598 207.8L78.4803 222.134C78.6216 222.307 79.1789 222.134 79.3281 222.307L81.3456 225.377C81.5105 225.549 82.0208 225.377 82.1935 225.549L83.5359 227.598C83.7243 227.763 84.1875 227.606 84.3837 227.771L87.2491 231.021C88.8899 232.23 90.9624 233.682 92.6581 234.797L94.181 235.998C94.4008 236.139 94.7855 236.037 95.0289 236.171L98.9227 238.746C99.1739 238.871 99.5193 238.793 99.7705 238.918L101.293 240.12C101.78 240.324 102.463 240.277 102.989 240.473L105.36 241.847C106.459 242.169 107.644 242.263 108.751 242.553C111.915 244.068 115.432 244.775 118.933 244.665C120.072 244.846 121.186 245.222 122.325 245.371L125.049 245.05C125.606 245.089 126.203 245.387 126.744 245.403L128.613 244.908C128.895 244.9 129.186 245.105 129.461 245.081L132.185 244.759C132.452 244.72 132.766 244.979 133.033 244.932L136.777 243.935C139.046 243.448 143.222 242.749 145.114 242.121L147.163 240.779C147.399 240.693 147.783 241.038 148.011 240.952C154.04 237.898 159.763 234.342 165.243 230.369C165.415 230.22 165.243 229.686 165.415 229.522L170.714 225.314C170.879 225.133 170.722 224.67 170.887 224.466L174.137 221.601C176.218 218.774 178.117 215.909 180.308 213.146L182.71 210.108C182.702 208.867 181.783 209.26 181.187 208.906C178.942 207.988 176.681 207.517 174.404 207.501C173.58 207.344 172.653 207.022 171.861 206.975L168.116 207.972C167.833 207.972 167.551 207.8 167.268 207.8L164.544 208.121C164.002 208.114 163.39 207.784 162.848 207.768L160.124 208.09C159.316 208.066 158.381 207.58 157.581 207.564L154.009 207.713C153.451 207.682 152.87 207.399 152.313 207.36L148.741 207.509C148.176 207.454 147.611 207.211 147.045 207.156C145.601 207.47 144.125 207.454 142.626 207.124C142.06 207.022 141.487 206.905 140.93 206.771L137.711 205.217C137.444 205.107 137.107 205.162 136.864 205.044L135.341 203.843C135.089 203.702 134.697 203.812 134.493 203.67L131.627 200.42C131.305 199.462 131.023 197.696 131.478 196.848L133.527 195.506C133.763 195.474 134.069 195.663 134.375 195.679C137.013 195.302 139.69 196.032 142.013 197.257C143.144 197.468 144.282 197.72 145.405 197.963L152.015 200.216C152.839 200.459 153.734 200.507 154.558 200.742L157.777 202.296C161.702 203.278 166.53 204.393 170.502 204.934L174.074 204.785C174.357 204.801 174.64 204.95 174.922 204.958L177.646 204.636C177.921 204.62 178.219 204.824 178.494 204.809L183.087 203.992C183.832 203.898 185.387 203.804 185.811 203.67C187.153 203.034 188.213 202.022 189.061 200.805C189.406 200.193 189.241 198.866 189.587 198.261L190.788 196.738C190.921 196.495 190.827 196.134 190.961 195.891L192.162 194.368C192.295 194.124 192.209 193.763 192.334 193.52L193.708 191.149C193.842 190.906 193.755 190.544 193.881 190.301L195.082 188.778C195.317 188.338 195.2 187.538 195.435 187.082L196.636 185.559C196.864 185.096 196.754 184.327 196.99 183.864L198.191 182.341C198.316 182.09 198.246 181.744 198.363 181.493L199.565 179.97C199.69 179.719 199.619 179.373 199.737 179.122L200.938 177.599C201.056 177.34 201.009 177.01 201.111 176.751L202.665 173.533C202.72 173.258 202.822 172.96 202.838 172.685C202.642 170.228 202.383 167.865 199.298 168.414C196.77 169.176 195.427 171.562 193.08 172.897C180.048 180.3 160.116 179.46 146.166 175.095C136.73 172.143 122.921 157.502 138.952 156.325C158.507 154.888 171.57 171.609 197.1 166.193C200.491 165.227 203.961 164.199 206.81 162.016C207.03 161.781 207.878 160.203 208.184 159.645L209.385 158.122C209.856 157.086 209.927 155.171 210.265 153.883L210.963 150.492C211.262 148.804 211.819 147.1 212.015 145.405L211.866 141.833C211.921 141.001 212.361 140.098 212.392 139.289L212.07 136.573C212.055 136.047 212.447 135.388 212.423 134.877L211.929 133.009C211.89 132.726 212.164 132.397 212.102 132.161L211.607 130.293C211.474 130.199 210.932 130.104 210.759 130.12L208.71 131.462C208.467 131.525 208.121 131.227 207.862 131.29L205.813 132.632C205.656 132.75 205.185 132.365 204.966 132.459C204.173 133.213 203.144 133.551 202.069 133.629C201.072 133.896 200.177 133.786 199.345 133.951L197.476 134.446C197.209 134.485 196.895 134.234 196.628 134.273L194.76 134.767C194.485 134.791 194.187 134.571 193.912 134.595L192.044 135.089C191.526 135.113 190.874 134.72 190.348 134.736L188.48 135.231C187.946 135.231 187.326 134.885 186.784 134.877L183.212 135.027C182.655 135.003 182.074 134.713 181.517 134.673L177.945 134.822C177.105 134.76 176.241 134.375 175.401 134.296L170.133 134.092C168.744 133.786 167.237 133.621 165.894 133.213C164.387 132.938 163.029 132.365 161.828 131.486C161.31 131.298 160.634 131.337 160.132 131.133L157.761 129.759C157.51 129.633 157.165 129.704 156.913 129.586L155.39 128.385C154.629 127.906 153.844 127.679 153.02 127.011C150.084 124.593 148.796 122.262 149.157 120.017C149.401 119.954 149.73 120.244 150.005 120.189L151.873 119.695C152.666 119.734 153.577 120.095 154.417 120.221L163.571 123C169.207 124.193 174.883 125.418 180.535 126.517L185.803 126.721C186.651 126.87 187.499 127.153 188.346 127.247L191.07 126.925C191.628 126.956 192.248 127.278 192.766 127.278L195.49 126.956C195.765 126.925 196.071 127.168 196.338 127.129L198.206 126.634C199.714 126.344 203.647 125.692 204.675 125.323L211.843 120.613C212.157 120.284 212.706 118.965 213.216 118.242L214.417 116.719C214.535 116.484 214.48 116.146 214.59 115.872C215.257 115.126 215.446 114.294 215.116 113.328C215.226 112.488 215.603 111.593 215.642 110.785L215.148 108.916C215.148 108.634 215.328 108.351 215.32 108.068L214.998 105.352C214.998 105.069 215.179 104.787 215.171 104.504L214.677 102.636C214.669 102.353 214.865 102.071 214.849 101.788L214.527 99.0718C214.504 98.5537 214.904 97.8942 214.881 97.3761L214.386 95.5077C214.355 94.9975 214.771 94.3145 214.739 93.812L214.245 91.9437C214.221 91.6689 214.441 91.3706 214.417 91.0958L214.096 88.3796C214.072 88.1048 214.3 87.8065 214.268 87.5317L213.774 85.6634C213.742 85.3886 213.986 85.0824 213.946 84.8155L213.452 82.9471C213.381 82.4761 213.884 81.6911 213.805 81.2514L213.311 79.383C212.408 77.1692 212.463 77.7266 210.092 77.8287C209.535 78.0328 209.063 78.1976 208.647 78.3311C201.888 82.0993 194.854 85.5613 187.601 88.254C179.044 91.4255 167.535 96.1907 159.112 91.1743C161.655 83.7793 173.462 85.946 180.308 84.9725C190.725 83.4966 206.159 79.9326 212.753 71.3364C212.596 71.831 212.439 72.2706 212.259 72.6788L213.185 71.3914C213.271 71.1245 213.311 70.8183 213.358 70.5435L213.036 67.8273C213.036 67.5447 213.224 67.2542 213.208 66.9794L212.714 65.1111C212.683 64.8363 212.934 64.5223 212.887 64.2632C212.117 60.6991 211.065 57.2371 209.731 53.8772C209.66 53.6338 209.982 53.2727 209.903 53.0293L208.561 50.9804C208.483 50.7449 208.82 50.368 208.734 50.1325L207.391 48.0836C207.305 47.8559 207.658 47.4556 207.564 47.2357L201.865 36.3237C201.771 36.1039 202.132 35.6957 202.037 35.4759L199.345 31.378C199.251 31.1582 199.619 30.7342 199.517 30.5301L194.807 23.3627C194.705 23.1665 195.09 22.7111 194.98 22.5149L184.892 7.15955C184.782 6.97899 185.175 6.49226 185.065 6.31171L181.03 0.172708L180.182 0C179.099 0.0392519 178.133 0.510275 177.285 1.16971C173.91 2.20596 170.463 2.66128 167.08 3.47772L163.335 4.47472C160.564 5.1263 157.753 5.65227 154.998 6.28816L151.081 8.13299C150.837 8.20365 150.476 7.88178 150.233 7.96029L148.184 9.3027C147.964 9.39691 147.548 9.02794 147.336 9.12999C143.12 11.8148 139.509 15.3396 136.393 19.2491C136.251 19.4768 136.353 19.8536 136.22 20.097L134.846 22.4678C134.642 22.9545 134.681 23.6296 134.493 24.1635L133.119 26.5343C132.083 30.1847 130.96 35.5073 130.481 39.2598L130.803 41.976C130.803 42.5177 130.411 43.1849 130.45 43.6717L130.944 45.5401C131.196 47.0316 131.47 48.6488 131.761 50.1325L133.103 52.1815C133.315 53.1863 133.299 53.9871 133.425 54.8977L133.92 56.7661C133.865 57.4569 133.637 58.6973 133.394 59.3096C132.569 60.7619 132.043 61.4135 130.497 60.4793C130.222 60.338 129.822 60.4479 129.649 60.3066L126.956 56.2087C126.862 55.9968 127.231 55.5728 127.129 55.3609L125.787 53.3119C125.7 53.0843 126.046 52.6918 125.959 52.4641L124.617 50.4151C124.538 50.1796 124.868 49.8028 124.79 49.5673L122.45 43.7737C122.403 43.5068 122.67 43.1928 122.623 42.9259L122.128 41.0575C122.097 40.7906 122.325 40.4844 122.301 40.2097L121.807 38.3413C121.807 38.0586 121.971 37.776 121.979 37.4934L121.657 34.7772C121.767 33.6467 122.199 32.5163 122.356 31.3858C122.16 28.1829 122.929 24.9485 124.287 22.0596L124.986 18.6682C126.038 17.5142 126.171 15.897 125.865 14.429C125.763 14.272 125.261 14.4211 125.017 14.2563C116.853 14.5939 108.798 16.4622 100.854 19.8693C100.603 19.9321 100.265 19.6338 100.006 19.6966L96.0887 21.5414C95.8296 21.6042 95.4842 21.2981 95.2408 21.3687L88.4267 24.3833C88.199 24.4696 87.8065 24.1164 87.5788 24.2106C85.0353 25.6393 82.8608 27.6255 81.0866 29.9414C80.9531 30.1612 81.0395 30.5223 80.9139 30.7892L79.5401 33.16C79.0533 34.3376 79.069 36.0803 78.6608 37.3992L77.1064 40.6179C76.8474 41.6855 76.5098 42.9494 76.4078 44.0092L76.9023 45.8776C76.8945 46.1602 76.7296 46.4429 76.7296 46.7255L77.2242 48.5939C77.2399 48.8765 77.0279 49.1669 77.0515 49.4417L77.3734 52.1579C77.4126 52.4248 77.1535 52.7389 77.2006 53.0058L77.6952 54.8742C77.9621 56.3186 78.2055 58.1713 78.5117 59.4666L80.3565 63.384C80.4272 63.6273 80.1053 63.9885 80.1838 64.2318L81.5262 66.2808C81.6204 66.5006 81.2514 66.9166 81.3535 67.1286L90.0988 80.435C90.2244 80.6077 90.8211 80.435 90.9467 80.6077C95.0446 86.2992 98.5144 92.3205 101.356 98.6871C101.317 101.011 100.626 100.092 99.3073 100.03C98.538 100.296 97.9728 100.179 97.6116 99.6763C97.3369 99.5664 96.9993 99.6213 96.7638 99.5036L94.5735 97.2819C94.3537 97.1249 93.922 97.2662 93.7257 97.1092L92.3833 95.0603C92.2027 94.8876 91.7003 95.0603 91.5354 94.8876L88.8428 90.7896C88.6779 90.6169 88.1441 90.7896 87.9949 90.6169C83.0099 83.371 78.5823 75.662 75.0653 67.5996C74.9947 67.3563 75.3008 67.003 75.2381 66.7518L73.3932 62.8344C73.1577 61.8453 73.2441 60.9033 73.0714 60.1182L71.4071 55.353C71.093 53.783 70.834 52.3542 70.5906 50.7606L70.0961 48.8922C70.0568 48.6253 70.308 48.3191 70.2688 48.0443L69.7742 46.1759C69.7428 45.9012 69.9783 45.6029 69.9469 45.3281L69.4523 43.4597C69.4209 43.1849 69.6564 42.8866 69.625 42.6119L69.1305 40.7435C69.0912 40.2411 69.523 39.5424 69.4837 39.0478C69.3032 37.4228 69.1383 36.1039 67.6389 35.1305C67.4112 35.0441 67.0344 34.9656 66.791 34.9577C59.0035 38.6082 51.7576 43.287 44.6137 48.0522C44.441 48.1856 44.6137 48.7587 44.441 48.9L37.2736 53.6102C37.1009 53.7594 37.2736 54.3011 37.1009 54.4581L33.003 57.1508C32.8381 57.3313 32.9952 57.8181 32.8303 57.9986C31.3623 58.8229 30.2161 60.0633 29.4075 61.7118C29.2741 61.9552 29.3683 62.3242 29.2348 62.5597L24.4382 68.6437C24.3362 68.9028 24.3519 69.2168 24.2655 69.4916C23.2293 70.6299 22.9467 72.2785 23.3863 73.7308C23.2371 74.5708 22.9388 75.4343 22.8603 76.2743L23.3549 78.1427C23.3392 78.6922 22.9859 79.3281 23.0016 79.8384L23.3235 82.5546C23.4334 83.3789 23.4962 84.6664 23.6453 85.2708L25.4902 89.1882C25.5608 89.4394 25.239 89.8005 25.3175 90.036C27.2487 94.2988 29.8236 98.326 32.5398 102.149C32.689 102.322 33.2307 102.149 33.3877 102.322L34.7301 104.371C34.9028 104.544 35.3974 104.371 35.5779 104.544L36.9203 106.592C37.1087 106.757 37.5641 106.608 37.7682 106.765L41.4814 110.188C41.7012 110.337 42.1016 110.219 42.3293 110.361L45.1946 113.611C45.3752 113.776 45.8384 113.626 46.0425 113.783L48.2327 116.005C48.8451 116.46 49.795 116.782 50.6036 117.379L53.6417 119.781C54.7486 120.621 56.2087 121.312 57.5354 122.356C58.4853 122.858 59.2625 123.604 59.7257 124.578C60.2674 125.033 61.3429 125.245 62.0965 125.952L63.4389 128C63.6038 128.173 64.1298 128 64.2868 128.173L70.3551 137.123C72.7102 140.318 71.6269 142.563 68.0864 144C66.6811 144.361 65.904 144.259 64.5144 144.149C63.5331 144.431 62.6382 144.455 61.9709 143.623C61.1545 143.426 60.1339 143.372 59.4274 143.097L57.9044 141.896C57.6532 141.77 57.2999 141.849 57.0566 141.723L54.0185 139.321C53.7987 139.172 53.3747 139.297 53.1706 139.148L45.9169 131.455C45.7442 131.282 45.2339 131.455 45.069 131.282L43.0515 128.212C42.8945 128.04 42.3607 128.212 42.2036 128.04L33.2856 115.581C33.1522 115.408 32.5712 115.581 32.4378 115.408L25.71 105.172C25.6079 104.967 25.9848 104.528 25.8827 104.324L22.0203 97.329C21.9418 97.0935 22.2715 96.7167 22.193 96.4812L21.0233 93.5844C20.9448 93.3489 21.2745 92.9721 21.196 92.7365L19.8536 90.6876C19.7751 90.4521 20.1127 90.0674 20.0263 89.8398L17.0118 83.0256C16.9725 82.7744 17.208 82.4682 17.1845 82.1778C17.2316 81.0552 16.9254 80.5371 15.8421 80.1288C15.2376 79.9326 13.8088 79.5715 13.2985 79.6029L10.229 81.6204C9.64027 82.3348 9.23205 83.897 8.67467 84.8391L7.47356 86.362C7.14385 86.9901 7.2616 88.1912 6.94759 88.9056L5.57377 91.2764C5.37751 91.7945 5.40106 92.4382 5.2205 92.9721L3.84669 95.3429C2.44932 100.336 1.09905 107.15 0.337566 112.308L0.486724 115.879L0.525976 115.785ZM180.072 58.3833C181.862 59.1762 184.021 61.9945 183.785 63.9806C183.071 70.1196 163.932 77.3184 159.92 73.1027C155.971 68.9577 171.123 54.411 180.072 58.3833ZM78.0877 106.216C81.2436 104.685 84.1482 106.059 86.8252 107.888C91.2293 110.902 101.427 126.674 95.3821 130.827C92.344 132.915 92.2341 130.104 91.928 129.845C88.1519 126.752 73.1656 110.871 78.0956 106.208L78.0877 106.216Z" fill="#F95D44"/>
<path d="M207.054 77.7266C207.462 79.0847 209.032 77.7816 209.66 77.7502C209.322 77.9386 208.985 78.127 208.647 78.3075C206.206 79.0926 206.112 78.6608 207.054 77.7188V77.7266Z" fill="#F95D44"/>
<path d="M212.274 72.6631C211.238 75.0653 209.778 76.0702 207.274 77.5147C208.114 76.7296 209.511 75.662 210.853 74.6493L212.274 72.6631Z" fill="#F95D44"/>
</svg>
