<?xml version="1.0" encoding="UTF-8"?>
<svg id="Calque_2" xmlns="http://www.w3.org/2000/svg" viewBox="0 0 410.39 236.49">
  <defs>
    <style>
      .cls-1 {
        fill: #f95d44;
      }

      .cls-2 {
        fill: #081645;
      }
    </style>
  </defs>
  <g id="Calque_1-2" data-name="Calque_1">
    <g>
      <circle class="cls-1" cx="80.3" cy="167" r="56"/>
      <path class="cls-2" d="M144.62,148.91c3.52,6.67,6.48,13.92,8.9,21.76,2.42,7.84,3.63,15.13,3.63,21.87,0,5.13-2.38,11.21-7.14,18.24-4.76,7.03-10.44,13.08-17.03,18.13s-12.45,7.58-17.58,7.58c-15.68-.14-32.53-2.82-50.55-8.02-18.02-5.2-33.33-13.04-45.94-23.52C6.3,194.48,0,181.84,0,167.04c0-7.76,2.2-14.98,6.59-21.65,4.4-6.66,9.82-11.9,16.26-15.71,6.45-3.81,12.53-5.71,18.24-5.71,6.01-.15,10.59,1.9,13.74,6.15,3.15,4.25,4.73,9.6,4.73,16.04,0,1.32-.07,2.63-.21,3.95-.6,5.72-5.68,9.93-11.43,9.9-.71,0-1.45,0-2.21,0-5.42,0-9.45.44-12.09,1.32-2.64.88-3.96,2.57-3.96,5.05,0,4.98,4.48,12.3,14.73,17.5,10.26,5.2,17.47,8.88,32.05,13.74,13.74,4.58,41.21,9.16,47.5,3.05,2.86-3.05-4.65-18.57-8.68-26.7-3.21-6.48-6.81-12.32-10.81-17.54-2-2.61-2.63-6.16-2.17-9.42q1-7,2.17-8.77c4.39-6.66,10.68-11.88,17.31-7.46,1.04.69,2,1.1,2.83,1.1,2.15,0,4.36.36,6.63,1.07,2.23.7,4.21,2,5.68,3.81,2.43,3,4.99,7.05,7.69,12.15Z"/>
      <path class="cls-2" d="M145.39,3.74c4.76,2.5,8.93,5.42,12.53,8.79,3.59,3.37,5.38,6.3,5.38,8.79,0,1.32-1.39,7.18-4.17,17.58-5.13,18.46-8.94,34.58-11.43,48.35-1.47,8.65-3,20-4.61,34.07-1.47,12.01-2.75,20.44-3.85,25.27-1.1,4.84-2.82,7.25-5.16,7.25-3.37,0-7.36-1.21-11.98-3.63-4.61-2.42-8.65-5.31-12.09-8.68-3.45-3.37-7.7,4.46-7.07,1.13.32-1.68,3.48-21.68,4.58-27.47,1.1-5.79,1.14-5.97,2.6-13l1.98-9.45c-13.48,2.05-26.74,3.52-39.78,4.4-1.47,9.82-2.5,18.02-3.08,24.62-1.47,11.87-7.21,34.65-12.09,34.65-4.58,0-4.28-3.77-8.9-6.19-4.61-2.42-8.65-5.31-12.09-8.68-3.45-3.37-5.17-6.15-5.17-8.35-.15-2.34.55-7.29,2.09-14.83,1.54-7.55,2.53-12.42,2.97-14.61.59-2.93,1.68-8.31,3.3-16.16,1.61-7.84,2.93-15.13,3.95-21.87l1.76-10.33c2.78-16.41,5.38-29.74,7.8-40,2.42-10.25,4.87-15.38,7.36-15.38,2.78,0,6.56,1.25,11.32,3.74,4.76,2.5,8.93,5.42,12.53,8.79,3.59,3.37,5.38,6.3,5.38,8.79,0,1.32-1.39,7.18-4.17,17.58-.59,2.35-1.61,6.3-3.08,11.87-1.47,5.57-2.78,10.77-3.95,15.61,13.63-1.02,26.81-2.42,39.56-4.18.29-2.05.58-3.66.88-4.83,2.64-16.26,5.2-29.89,7.69-40.88,2.49-10.99,5.05-16.48,7.69-16.48,2.78,0,6.56,1.25,11.32,3.74Z"/>
      <ellipse class="cls-2" cx="52.93" cy="156.32" rx="7.15" ry="2.61" transform="translate(-56.53 32.81) rotate(-22.84)"/>
      <g>
        <path class="cls-2" d="M191.63,134.93c1.88-.79,3.48-1.96,4.79-3.5l2.72,3.13c-1.59,1.9-3.56,3.36-5.92,4.35-2.36,1-4.96,1.5-7.82,1.5-3.67,0-6.94-.78-9.79-2.35-2.86-1.56-5.08-3.73-6.66-6.49-1.59-2.76-2.38-5.89-2.38-9.38s.76-6.62,2.28-9.38c1.52-2.76,3.61-4.92,6.29-6.46,2.67-1.54,5.71-2.31,9.11-2.31,3.17,0,6.04.73,8.6,2.18,2.56,1.45,4.6,3.47,6.12,6.05,1.52,2.58,2.32,5.53,2.41,8.84l-29.38,5.71c.91,2.9,2.55,5.18,4.93,6.83,2.38,1.66,5.22,2.48,8.53,2.48,2.22,0,4.27-.4,6.15-1.19ZM177.55,109.9c-1.97,1.16-3.51,2.77-4.62,4.83-1.11,2.06-1.67,4.43-1.67,7.11,0,.68.02,1.18.07,1.5l25.23-4.9c-.54-2.99-1.93-5.45-4.15-7.38-2.22-1.93-4.94-2.89-8.16-2.89-2.49,0-4.73.58-6.7,1.73ZM188.74,90.28h6.46l-11.02,8.43h-4.76l9.32-8.43Z"/>
        <path class="cls-2" d="M213.87,137.68c-1.75-1.81-2.62-4.33-2.62-7.55v-40.53h4.83v40.12c0,2.13.5,3.75,1.5,4.86,1,1.11,2.49,1.67,4.49,1.67,1.27,0,2.36-.2,3.26-.61l.34,4.01c-1.41.5-2.86.75-4.35.75-3.22,0-5.7-.91-7.45-2.72Z"/>
        <path class="cls-2" d="M253.03,134.93c1.88-.79,3.48-1.96,4.79-3.5l2.72,3.13c-1.59,1.9-3.56,3.36-5.92,4.35-2.36,1-4.96,1.5-7.82,1.5-3.67,0-6.94-.78-9.79-2.35-2.86-1.56-5.08-3.73-6.66-6.49-1.59-2.76-2.38-5.89-2.38-9.38s.76-6.62,2.28-9.38c1.52-2.76,3.61-4.92,6.29-6.46,2.67-1.54,5.71-2.31,9.11-2.31,3.17,0,6.04.73,8.6,2.18,2.56,1.45,4.6,3.47,6.12,6.05,1.52,2.58,2.32,5.53,2.41,8.84l-29.38,5.71c.91,2.9,2.55,5.18,4.93,6.83,2.38,1.66,5.22,2.48,8.53,2.48,2.22,0,4.27-.4,6.15-1.19ZM238.96,109.9c-1.97,1.16-3.51,2.77-4.62,4.83-1.11,2.06-1.67,4.43-1.67,7.11,0,.68.02,1.18.07,1.5l25.23-4.9c-.54-2.99-1.93-5.45-4.15-7.38-2.22-1.93-4.94-2.89-8.16-2.89-2.49,0-4.73.58-6.7,1.73ZM233.89,90.28h6.46l9.32,8.43h-4.76l-11.02-8.43Z"/>
        <path class="cls-2" d="M301.58,107.93c2.65,2.61,3.98,6.4,3.98,11.39v20.74h-4.83v-20.26c0-3.72-.93-6.55-2.79-8.5-1.86-1.95-4.51-2.92-7.96-2.92-3.85,0-6.9,1.15-9.15,3.43-2.24,2.29-3.37,5.45-3.37,9.49v18.77h-4.83v-35.77h4.62v6.6c1.31-2.18,3.14-3.86,5.47-5.07,2.33-1.2,5.04-1.8,8.13-1.8,4.49,0,8.06,1.3,10.71,3.91Z"/>
        <path class="cls-2" d="M340.27,134.93c1.88-.79,3.48-1.96,4.79-3.5l2.72,3.13c-1.59,1.9-3.56,3.36-5.92,4.35-2.36,1-4.96,1.5-7.82,1.5-3.67,0-6.94-.78-9.79-2.35-2.86-1.56-5.08-3.73-6.66-6.49-1.59-2.76-2.38-5.89-2.38-9.38s.76-6.62,2.28-9.38c1.52-2.76,3.61-4.92,6.29-6.46,2.67-1.54,5.71-2.31,9.11-2.31,3.17,0,6.04.73,8.6,2.18,2.56,1.45,4.6,3.47,6.12,6.05,1.52,2.58,2.32,5.53,2.41,8.84l-29.38,5.71c.91,2.9,2.55,5.18,4.93,6.83,2.38,1.66,5.22,2.48,8.53,2.48,2.22,0,4.27-.4,6.15-1.19ZM326.2,109.9c-1.97,1.16-3.51,2.77-4.62,4.83-1.11,2.06-1.67,4.43-1.67,7.11,0,.68.02,1.18.07,1.5l25.23-4.9c-.54-2.99-1.93-5.45-4.15-7.38-2.22-1.93-4.94-2.89-8.16-2.89-2.49,0-4.73.58-6.7,1.73Z"/>
      </g>
      <g>
        <path class="cls-2" d="M202.85,178.19v35.77h-4.62v-7.07c-1.45,2.4-3.37,4.24-5.75,5.51-2.38,1.27-5.07,1.9-8.06,1.9-3.35,0-6.39-.77-9.11-2.31-2.72-1.54-4.85-3.69-6.39-6.46-1.54-2.76-2.31-5.92-2.31-9.45s.77-6.69,2.31-9.45c1.54-2.76,3.67-4.91,6.39-6.43,2.72-1.52,5.76-2.28,9.11-2.28,2.9,0,5.52.6,7.85,1.8,2.33,1.2,4.25,2.96,5.75,5.27v-6.8h4.83ZM191.6,208.28c2.02-1.16,3.6-2.8,4.76-4.93,1.16-2.13,1.73-4.56,1.73-7.28s-.58-5.14-1.73-7.28c-1.16-2.13-2.74-3.77-4.76-4.93-2.02-1.16-4.27-1.73-6.77-1.73s-4.82.58-6.83,1.73c-2.02,1.16-3.6,2.8-4.76,4.93-1.16,2.13-1.73,4.56-1.73,7.28s.58,5.15,1.73,7.28c1.16,2.13,2.74,3.77,4.76,4.93,2.02,1.16,4.29,1.73,6.83,1.73s4.75-.58,6.77-1.73Z"/>
        <path class="cls-2" d="M245.25,181.83c2.65,2.61,3.98,6.4,3.98,11.39v20.74h-4.83v-20.26c0-3.72-.93-6.55-2.79-8.5-1.86-1.95-4.51-2.92-7.96-2.92-3.85,0-6.9,1.15-9.15,3.43-2.24,2.29-3.37,5.45-3.37,9.49v18.77h-4.83v-35.77h4.62v6.6c1.31-2.18,3.14-3.86,5.47-5.07,2.33-1.2,5.04-1.8,8.13-1.8,4.49,0,8.06,1.3,10.71,3.91Z"/>
        <path class="cls-2" d="M267.79,211.96c-2.77-1.56-4.94-3.73-6.53-6.49-1.59-2.76-2.38-5.89-2.38-9.38s.79-6.62,2.38-9.38c1.59-2.76,3.76-4.92,6.53-6.46,2.76-1.54,5.87-2.31,9.32-2.31s6.55.77,9.32,2.31c2.76,1.54,4.93,3.7,6.49,6.46,1.56,2.77,2.35,5.89,2.35,9.38s-.78,6.62-2.35,9.38c-1.56,2.77-3.73,4.93-6.49,6.49-2.77,1.56-5.87,2.35-9.32,2.35s-6.55-.78-9.32-2.35ZM283.94,208.28c2.02-1.16,3.59-2.8,4.73-4.93,1.13-2.13,1.7-4.56,1.7-7.28s-.57-5.14-1.7-7.28c-1.13-2.13-2.71-3.77-4.73-4.93-2.02-1.16-4.3-1.73-6.83-1.73s-4.82.58-6.83,1.73c-2.02,1.16-3.6,2.8-4.76,4.93-1.16,2.13-1.73,4.56-1.73,7.28s.58,5.15,1.73,7.28c1.16,2.13,2.74,3.77,4.76,4.93,2.02,1.16,4.29,1.73,6.83,1.73s4.82-.58,6.83-1.73Z"/>
        <path class="cls-2" d="M334.16,178.19l-15.91,35.77h-4.96l-15.84-35.77h5.03l13.4,30.46,13.53-30.46h4.76Z"/>
        <path class="cls-2" d="M372.58,178.19v35.77h-4.62v-7.07c-1.45,2.4-3.37,4.24-5.75,5.51-2.38,1.27-5.07,1.9-8.06,1.9-3.35,0-6.39-.77-9.11-2.31-2.72-1.54-4.85-3.69-6.39-6.46-1.54-2.76-2.31-5.92-2.31-9.45s.77-6.69,2.31-9.45c1.54-2.76,3.67-4.91,6.39-6.43,2.72-1.52,5.76-2.28,9.11-2.28,2.9,0,5.52.6,7.85,1.8,2.33,1.2,4.25,2.96,5.75,5.27v-6.8h4.83ZM361.33,208.28c2.02-1.16,3.6-2.8,4.76-4.93,1.16-2.13,1.73-4.56,1.73-7.28s-.58-5.14-1.73-7.28c-1.16-2.13-2.74-3.77-4.76-4.93-2.02-1.16-4.27-1.73-6.77-1.73s-4.82.58-6.83,1.73c-2.02,1.16-3.6,2.8-4.76,4.93-1.16,2.13-1.73,4.56-1.73,7.28s.58,5.15,1.73,7.28c1.16,2.13,2.74,3.77,4.76,4.93,2.02,1.16,4.29,1.73,6.83,1.73s4.75-.58,6.77-1.73Z"/>
        <path class="cls-2" d="M387.3,213.04c-2.65-.84-4.73-1.89-6.22-3.16l2.18-3.81c1.5,1.18,3.38,2.14,5.64,2.89,2.27.75,4.62,1.12,7.07,1.12,3.26,0,5.68-.51,7.24-1.53,1.56-1.02,2.35-2.46,2.35-4.32,0-1.31-.43-2.35-1.29-3.09-.86-.75-1.95-1.31-3.26-1.7-1.32-.38-3.06-.76-5.24-1.12-2.9-.54-5.24-1.1-7-1.67-1.77-.57-3.28-1.53-4.52-2.89-1.25-1.36-1.87-3.24-1.87-5.64,0-2.99,1.25-5.44,3.74-7.34,2.49-1.9,5.96-2.86,10.4-2.86,2.31,0,4.62.31,6.94.92,2.31.61,4.22,1.42,5.71,2.41l-2.11,3.88c-2.95-2.04-6.46-3.06-10.54-3.06-3.08,0-5.41.54-6.97,1.63-1.56,1.09-2.35,2.52-2.35,4.28,0,1.36.44,2.45,1.33,3.26.88.82,1.98,1.42,3.3,1.8,1.31.39,3.13.78,5.44,1.19,2.86.54,5.14,1.09,6.87,1.63s3.2,1.47,4.42,2.79c1.22,1.32,1.84,3.13,1.84,5.44,0,3.13-1.3,5.61-3.91,7.45-2.61,1.84-6.22,2.75-10.85,2.75-2.9,0-5.68-.42-8.33-1.26Z"/>
      </g>
    </g>
  </g>
</svg>